<svg width="22" height="32" viewBox="0 0 22 32" fill="none" xmlns="http://www.w3.org/2000/svg">
<path d="M3.14286 3.2V28.8H18.8571V3.2H3.14286ZM1.57143 0H20.4286C20.8453 0 21.245 0.168571 21.5397 0.468629C21.8344 0.768687 22 1.17565 22 1.6V30.4C22 30.8243 21.8344 31.2313 21.5397 31.5314C21.245 31.8314 20.8453 32 20.4286 32H1.57143C1.15466 32 0.754961 31.8314 0.460261 31.5314C0.165561 31.2313 0 30.8243 0 30.4V1.6C0 1.17565 0.165561 0.768687 0.460261 0.468629C0.754961 0.168571 1.15466 0 1.57143 0ZM11 24C11.4168 24 11.8165 24.1686 12.1112 24.4686C12.4059 24.7687 12.5714 25.1757 12.5714 25.6C12.5714 26.0243 12.4059 26.4313 12.1112 26.7314C11.8165 27.0314 11.4168 27.2 11 27.2C10.5832 27.2 10.1835 27.0314 9.88883 26.7314C9.59413 26.4313 9.42857 26.0243 9.42857 25.6C9.42857 25.1757 9.59413 24.7687 9.88883 24.4686C10.1835 24.1686 10.5832 24 11 24Z" fill="white"/>
</svg>
