<svg width="39" height="39" viewBox="0 0 39 39" fill="none" xmlns="http://www.w3.org/2000/svg">
<path d="M22.3281 33.0879H27.7105V38.4702H22.3281V33.0879Z" fill="white"/>
<path d="M33.0938 33.0879H38.4761V38.4702H33.0938V33.0879Z" fill="white"/>
<path d="M22.3281 22.3242H27.7105V27.7066H22.3281V22.3242Z" fill="white"/>
<path d="M27.7109 27.707H33.0933V33.0894H27.7109V27.707Z" fill="white"/>
<path d="M33.0938 22.3242H38.4761V27.7066H33.0938V22.3242Z" fill="white"/>
<path d="M0.796875 6.17726C0.796875 4.74977 1.36394 3.38075 2.37332 2.37137C3.38271 1.36199 4.75173 0.794922 6.17921 0.794922H11.5615C12.989 0.794922 14.358 1.36199 15.3674 2.37137C16.3768 3.38075 16.9439 4.74977 16.9439 6.17726V11.5596C16.9439 12.9871 16.3768 14.3561 15.3674 15.3655C14.358 16.3749 12.989 16.9419 11.5615 16.9419H6.17921C4.75173 16.9419 3.38271 16.3749 2.37332 15.3655C1.36394 14.3561 0.796875 12.9871 0.796875 11.5596V6.17726ZM6.17921 3.48609C5.46547 3.48609 4.78096 3.76962 4.27627 4.27431C3.77158 4.77901 3.48804 5.46351 3.48804 6.17726V11.5596C3.48804 12.2733 3.77158 12.9578 4.27627 13.4625C4.78096 13.9672 5.46547 14.2508 6.17921 14.2508H11.5615C12.2753 14.2508 12.9598 13.9672 13.4645 13.4625C13.9692 12.9578 14.2527 12.2733 14.2527 11.5596V6.17726C14.2527 5.46351 13.9692 4.77901 13.4645 4.27431C12.9598 3.76962 12.2753 3.48609 11.5615 3.48609H6.17921Z" fill="white"/>
<path d="M6.17969 6.17773H11.562V11.5601H6.17969V6.17773Z" fill="white"/>
<path d="M0.796875 27.7066C0.796875 26.2791 1.36394 24.9101 2.37332 23.9007C3.38271 22.8913 4.75173 22.3242 6.17921 22.3242H11.5615C12.989 22.3242 14.358 22.8913 15.3674 23.9007C16.3768 24.9101 16.9439 26.2791 16.9439 27.7066V33.0889C16.9439 34.5164 16.3768 35.8854 15.3674 36.8948C14.358 37.9042 12.989 38.4712 11.5615 38.4712H6.17921C4.75173 38.4712 3.38271 37.9042 2.37332 36.8948C1.36394 35.8854 0.796875 34.5164 0.796875 33.0889V27.7066ZM6.17921 25.0154C5.46547 25.0154 4.78096 25.2989 4.27627 25.8036C3.77158 26.3083 3.48804 26.9928 3.48804 27.7066V33.0889C3.48804 33.8026 3.77158 34.4871 4.27627 34.9918C4.78096 35.4965 5.46547 35.7801 6.17921 35.7801H11.5615C12.2753 35.7801 12.9598 35.4965 13.4645 34.9918C13.9692 34.4871 14.2527 33.8026 14.2527 33.0889V27.7066C14.2527 26.9928 13.9692 26.3083 13.4645 25.8036C12.9598 25.2989 12.2753 25.0154 11.5615 25.0154H6.17921Z" fill="white"/>
<path d="M6.17969 27.707H11.562V33.0894H6.17969V27.707Z" fill="white"/>
<path d="M22.3281 6.17726C22.3281 4.74977 22.8952 3.38075 23.9046 2.37137C24.914 1.36199 26.283 0.794922 27.7105 0.794922H33.0928C34.5203 0.794922 35.8893 1.36199 36.8987 2.37137C37.9081 3.38075 38.4751 4.74977 38.4751 6.17726V11.5596C38.4751 12.9871 37.9081 14.3561 36.8987 15.3655C35.8893 16.3749 34.5203 16.9419 33.0928 16.9419H27.7105C26.283 16.9419 24.914 16.3749 23.9046 15.3655C22.8952 14.3561 22.3281 12.9871 22.3281 11.5596V6.17726ZM27.7105 3.48609C26.9967 3.48609 26.3122 3.76962 25.8075 4.27431C25.3028 4.77901 25.0193 5.46351 25.0193 6.17726V11.5596C25.0193 12.2733 25.3028 12.9578 25.8075 13.4625C26.3122 13.9672 26.9967 14.2508 27.7105 14.2508H33.0928C33.8065 14.2508 34.491 13.9672 34.9957 13.4625C35.5004 12.9578 35.784 12.2733 35.784 11.5596V6.17726C35.784 5.46351 35.5004 4.77901 34.9957 4.27431C34.491 3.76962 33.8065 3.48609 33.0928 3.48609H27.7105Z" fill="white"/>
<path d="M27.7109 6.17773H33.0933V11.5601H27.7109V6.17773Z" fill="white"/>
</svg>
