<svg width="34" height="37" viewBox="0 0 34 37" fill="none" xmlns="http://www.w3.org/2000/svg">
<path d="M32.8175 18.6359V20.0995C32.8155 23.5301 31.7047 26.8682 29.6506 29.6158C27.5965 32.3635 24.7093 34.3736 21.4194 35.3463C18.1296 36.319 14.6135 36.2022 11.3955 35.0133C8.17752 33.8244 5.43004 31.6271 3.56284 28.7492C1.69564 25.8712 0.808763 22.4668 1.03449 19.0437C1.26021 15.6205 2.58643 12.362 4.81536 9.75415C7.0443 7.1463 10.0565 5.32883 13.4028 4.57279C16.749 3.81675 20.25 4.16265 23.3836 5.5589" stroke="white" stroke-width="2" stroke-linecap="round" stroke-linejoin="round"/>
<path d="M22.7473 0.999992L26.0094 6.9267L20.0997 10.1873" stroke="white" stroke-width="2" stroke-linecap="round" stroke-linejoin="round"/>
<path d="M12.1328 27.251V13.7285L20.0872 27.251V13.7285" stroke="white" stroke-width="2" stroke-linecap="round" stroke-linejoin="round"/>
<path d="M8.95312 16.9102H23.271" stroke="white" stroke-width="2" stroke-linecap="round" stroke-linejoin="round"/>
<path d="M8.95312 23.2734H23.271" stroke="white" stroke-width="2" stroke-linecap="round" stroke-linejoin="round"/>
</svg>
