<svg width="29" height="29" viewBox="0 0 29 29" fill="none" xmlns="http://www.w3.org/2000/svg">
<path d="M6.04167 18.125V20.5417C6.04167 21.8153 7.18958 22.9583 8.45833 22.9583H12.0833V25.375H8.45833C7.17645 25.375 5.94708 24.8658 5.04065 23.9593C4.13422 23.0529 3.625 21.8235 3.625 20.5417V18.125H6.04167ZM21.75 12.0833L27.0667 25.375H24.4627L23.0115 21.75H18.0694L16.6206 25.375H14.0179L19.3333 12.0833H21.75ZM20.5417 15.5694L19.0349 19.3333H22.046L20.5417 15.5694ZM3.625 3.625H10.875C11.5747 3.62525 12.2593 3.82797 12.8463 4.20871C13.4333 4.58945 13.8976 5.13193 14.1831 5.77069C14.4687 6.40945 14.5632 7.11719 14.4554 7.8085C14.3476 8.49982 14.0421 9.14516 13.5756 9.66667C14.0421 10.1882 14.3476 10.8335 14.4554 11.5248C14.5632 12.2161 14.4687 12.9239 14.1831 13.5626C13.8976 14.2014 13.4333 14.7439 12.8463 15.1246C12.2593 15.5054 11.5747 15.7081 10.875 15.7083H3.625V3.625ZM10.875 10.875H6.04167V13.2917H10.875C11.1955 13.2917 11.5028 13.1644 11.7294 12.9378C11.956 12.7111 12.0833 12.4038 12.0833 12.0833C12.0833 11.7629 11.956 11.4555 11.7294 11.2289C11.5028 11.0023 11.1955 10.875 10.875 10.875ZM20.5417 3.625C21.8235 3.625 23.0529 4.13422 23.9593 5.04065C24.8658 5.94708 25.375 7.17645 25.375 8.45833V10.875H22.9583V8.45833C22.9583 7.81739 22.7037 7.2027 22.2505 6.74949C21.7973 6.29628 21.1826 6.04167 20.5417 6.04167H16.9167V3.625H20.5417ZM10.875 6.04167H6.04167V8.45833H10.875C11.1955 8.45833 11.5028 8.33103 11.7294 8.10442C11.956 7.87781 12.0833 7.57047 12.0833 7.25C12.0833 6.92953 11.956 6.62219 11.7294 6.39558C11.5028 6.16897 11.1955 6.04167 10.875 6.04167Z" fill="white"/>
</svg>
