<svg width="35" height="37" viewBox="0 0 35 37" fill="none" xmlns="http://www.w3.org/2000/svg">
<path d="M14.9375 0.625L28.1651 4.7575C28.534 4.87267 28.8565 5.10275 29.0854 5.41415C29.3143 5.72555 29.4377 6.10196 29.4375 6.48844V9.6875H33.0625C33.5432 9.6875 34.0042 9.87846 34.3441 10.2184C34.684 10.5583 34.875 11.0193 34.875 11.5V26C34.875 26.4807 34.684 26.9417 34.3441 27.2816C34.0042 27.6215 33.5432 27.8125 33.0625 27.8125L27.2263 27.8143C26.5248 28.7387 25.6729 29.5543 24.6888 30.2249L14.9375 36.875L5.18625 30.2268C3.7227 29.2289 2.52505 27.8886 1.69744 26.3225C0.869832 24.7563 0.437317 23.0117 0.4375 21.2404V6.48844C0.437719 6.10227 0.56127 5.72626 0.790144 5.41523C1.01902 5.1042 1.34125 4.87439 1.70988 4.75931L14.9375 0.625ZM14.9375 4.42037L4.0625 7.82062V21.2404C4.06224 22.35 4.3167 23.445 4.80629 24.4408C5.29587 25.4366 6.00751 26.3067 6.88638 26.9842L7.22894 27.2307L14.9375 32.4888L21.7924 27.8125H13.125C12.6443 27.8125 12.1833 27.6215 11.8434 27.2816C11.5035 26.9417 11.3125 26.4807 11.3125 26V11.5C11.3125 11.0193 11.5035 10.5583 11.8434 10.2184C12.1833 9.87846 12.6443 9.6875 13.125 9.6875H25.8125V7.82062L14.9375 4.42037ZM14.9375 18.75V24.1875H31.25V18.75H14.9375ZM14.9375 15.125H31.25V13.3125H14.9375V15.125Z" fill="white"/>
</svg>
