<svg width="1599" height="570" viewBox="0 0 1599 570" fill="none" xmlns="http://www.w3.org/2000/svg">
<g filter="url(#filter0_d_2071_67101)">
<path d="M159.208 277.487L180.506 153.56H224.887L185.479 351.192H139.057L114.188 238.531L89.8296 351.192H43.5352L4 153.56H48.509L69.807 277.487L95.3136 153.56H133.318L159.208 277.487Z" fill="#FF4400"/>
<path d="M342.217 314.272H280.874L270.161 351.192H222.336L290.439 153.56H332.525L401.137 351.192H353.058L342.217 314.272ZM291.587 277.487H331.504L311.482 208.94L291.587 277.487Z" fill="#FF4400"/>
<path d="M463.629 239.345L497.807 153.56H546.142L486.329 280.202V351.192H440.928V280.202L381.242 153.56H429.322L463.629 239.345Z" fill="#FF4400"/>
<path d="M646.001 314.272H584.657L573.945 351.192H526.12L594.222 153.56H636.308L704.921 351.192H656.841L646.001 314.272ZM595.37 277.487H635.288L615.265 208.94L595.37 277.487Z" fill="#FF4400"/>
<path d="M867.78 326.759C860.894 334.904 850.818 341.464 837.555 346.441C824.292 351.418 809.753 353.907 793.939 353.907C769.623 353.907 750.195 345.989 735.656 330.153C721.117 314.317 713.338 292.282 712.318 264.049L712.19 246.946C712.19 227.491 715.421 210.524 721.883 196.045C728.344 181.476 737.569 170.3 749.557 162.518C761.63 154.646 775.574 150.709 791.388 150.709C814.514 150.709 832.454 156.365 845.207 167.676C858.045 178.897 865.527 195.683 867.653 218.035H824.547C823.016 206.995 819.7 199.122 814.599 194.416C809.498 189.711 802.271 187.358 792.918 187.358C781.696 187.358 773.023 192.426 766.902 202.561C760.78 212.696 757.677 227.174 757.592 245.996V257.941C757.592 277.668 760.738 292.509 767.029 302.463C773.406 312.326 783.396 317.258 797 317.258C808.648 317.258 817.32 314.498 823.016 308.978V278.302H791.898V245.589H867.78V326.759Z" fill="#FF4400"/>
<path d="M962.792 281.423H938.561V351.192H893.797V153.56H966.873C988.894 153.56 1006.11 158.763 1018.52 169.169C1030.94 179.576 1037.14 194.281 1037.14 213.284C1037.14 227.038 1034.51 238.44 1029.24 247.489C1024.05 256.538 1015.89 263.868 1004.75 269.479L1043.52 349.156V351.192H995.568L962.792 281.423ZM938.561 244.639H966.873C975.376 244.639 981.752 242.286 986.003 237.581C990.339 232.785 992.508 226.133 992.508 217.627C992.508 209.121 990.339 202.47 986.003 197.674C981.667 192.788 975.291 190.344 966.873 190.344H938.561V244.639Z" fill="#FF4400"/>
<path d="M1169.65 314.272H1108.31L1097.59 351.192H1049.77L1117.87 153.56H1159.96L1228.57 351.192H1180.49L1169.65 314.272ZM1119.02 277.487H1158.94L1138.92 208.94L1119.02 277.487Z" fill="#FF4400"/>
<path d="M1301.01 153.56L1342.46 291.061L1383.78 153.56H1442.7V351.192H1397.81V305.042L1402.14 210.569L1357.25 351.192H1327.66L1282.64 210.433L1286.98 305.042V351.192H1242.22V153.56H1301.01Z" fill="#FF4400"/>
<path d="M1350.13 562L1267.83 473.182H1199.6C1145.91 473.182 1102.23 431.498 1102.23 380.27H1151.12C1151.12 405.775 1172.87 426.531 1199.6 426.531H1289.87L1347.4 488.625L1397.22 426.531H1497.61C1524.34 426.531 1546.1 405.775 1546.1 380.27V92.9116C1546.1 67.4069 1524.34 46.6513 1497.61 46.6513H1199.6C1172.87 46.6513 1151.12 67.4069 1151.12 92.9116H1102.23C1102.23 41.6837 1145.91 0 1199.6 0H1497.62C1551.31 0 1595 41.6837 1595 92.9116V380.27C1595 431.498 1551.31 473.182 1497.62 473.182H1421.37L1350.13 562Z" fill="#FF4400"/>
</g>
<defs>
<filter id="filter0_d_2071_67101" x="0" y="0" width="1599" height="570" filterUnits="userSpaceOnUse" color-interpolation-filters="sRGB">
<feFlood flood-opacity="0" result="BackgroundImageFix"/>
<feColorMatrix in="SourceAlpha" type="matrix" values="0 0 0 0 0 0 0 0 0 0 0 0 0 0 0 0 0 0 127 0" result="hardAlpha"/>
<feOffset dy="4"/>
<feGaussianBlur stdDeviation="2"/>
<feComposite in2="hardAlpha" operator="out"/>
<feColorMatrix type="matrix" values="0 0 0 0 0 0 0 0 0 0 0 0 0 0 0 0 0 0 0.25 0"/>
<feBlend mode="normal" in2="BackgroundImageFix" result="effect1_dropShadow_2071_67101"/>
<feBlend mode="normal" in="SourceGraphic" in2="effect1_dropShadow_2071_67101" result="shape"/>
</filter>
</defs>
</svg>
