<svg width="128" height="24" viewBox="0 0 128 24" fill="none" xmlns="http://www.w3.org/2000/svg">
<path d="M46.5846 1.96496L42.2289 18.2515H40.324L37.0934 7.28982C36.9969 6.9779 36.9041 6.66599 36.8149 6.35407C36.7333 6.03473 36.6553 5.73395 36.581 5.45174C36.5067 5.1621 36.4436 4.9096 36.3916 4.69423C36.3471 4.47143 36.3136 4.30433 36.2914 4.19293C36.2765 4.30433 36.2468 4.46772 36.2022 4.68309C36.1651 4.89846 36.1131 5.14725 36.0463 5.42946C35.9869 5.71167 35.9126 6.01245 35.8235 6.33179C35.7418 6.65113 35.6527 6.97419 35.5561 7.30096L32.4147 18.2515H30.5098L26.1875 1.96496H28.1593L30.7771 12.1802C30.8662 12.5218 30.9479 12.8598 31.0222 13.194C31.1039 13.5207 31.1745 13.8401 31.2339 14.152C31.3007 14.4639 31.3601 14.7684 31.4121 15.0655C31.4641 15.3625 31.5124 15.6522 31.5569 15.9344C31.5941 15.6447 31.6423 15.344 31.7017 15.032C31.7612 14.7127 31.8243 14.3896 31.8911 14.0629C31.9654 13.7361 32.0434 13.4056 32.1251 13.0714C32.2142 12.7372 32.307 12.403 32.4036 12.0688L35.3333 1.96496H37.2828L40.3351 12.1468C40.4391 12.4959 40.5357 12.8412 40.6248 13.1828C40.7139 13.5244 40.7919 13.8586 40.8587 14.1854C40.933 14.5047 40.9961 14.8129 41.0481 15.11C41.1075 15.3996 41.1595 15.6744 41.2041 15.9344C41.256 15.5705 41.3192 15.188 41.3934 14.787C41.4677 14.3859 41.5531 13.9663 41.6497 13.5282C41.7536 13.09 41.865 12.637 41.9838 12.1691L44.6017 1.96496H46.5846Z" fill="#FF4400"/>
<path d="M53.4468 5.84163C54.9024 5.84163 55.983 6.1684 56.6885 6.82194C57.394 7.47548 57.7468 8.51892 57.7468 9.95225V18.2515H56.3988L56.0424 16.4468H55.9533C55.6116 16.8924 55.2552 17.2674 54.8838 17.5719C54.5125 17.869 54.0818 18.0955 53.5916 18.2515C53.1089 18.4 52.5147 18.4743 51.8092 18.4743C51.0666 18.4743 50.4056 18.3443 49.8263 18.0844C49.2545 17.8244 48.8015 17.4308 48.4673 16.9035C48.1405 16.3762 47.9771 15.7079 47.9771 14.8984C47.9771 13.6804 48.4598 12.7446 49.4253 12.0911C50.3907 11.4376 51.8612 11.0811 53.8367 11.0217L55.9421 10.9326V10.1862C55.9421 9.13161 55.7156 8.39267 55.2626 7.96935C54.8096 7.54604 54.1709 7.33438 53.3465 7.33438C52.7078 7.33438 52.0989 7.42721 51.5196 7.61288C50.9403 7.79854 50.3907 8.01762 49.8709 8.27013L49.3027 6.8665C49.8523 6.58429 50.4836 6.34293 51.1965 6.14241C51.9095 5.94189 52.6596 5.84163 53.4468 5.84163ZM55.9198 12.2359L54.0595 12.3139C52.537 12.3733 51.4639 12.6221 50.84 13.0603C50.2162 13.4984 49.9043 14.1186 49.9043 14.9206C49.9043 15.6187 50.116 16.1349 50.5393 16.4691C50.9626 16.8033 51.5233 16.9704 52.2214 16.9704C53.3057 16.9704 54.1932 16.6696 54.8838 16.068C55.5745 15.4665 55.9198 14.5642 55.9198 13.3611V12.2359Z" fill="#FF4400"/>
<path d="M59.6294 6.04215H61.6123L64.3082 13.1271C64.4641 13.543 64.6089 13.944 64.7426 14.3302C64.8763 14.709 64.9951 15.0729 65.0991 15.4219C65.2031 15.771 65.2848 16.1089 65.3442 16.4357H65.4221C65.5261 16.0643 65.6747 15.5779 65.8677 14.9763C66.0608 14.3674 66.2688 13.7472 66.4916 13.116L69.0426 6.04215H71.0366L65.7229 20.045C65.4407 20.7951 65.1102 21.4486 64.7315 22.0056C64.3601 22.5626 63.9071 22.9896 63.3724 23.2867C62.8377 23.5912 62.1916 23.7434 61.4341 23.7434C61.085 23.7434 60.7768 23.7211 60.5095 23.6766C60.2421 23.6394 60.0119 23.5949 59.8188 23.5429V22.0613C59.9822 22.0984 60.179 22.1318 60.4092 22.1616C60.6469 22.1913 60.8919 22.2061 61.1444 22.2061C61.6049 22.2061 62.0022 22.117 62.3364 21.9388C62.678 21.7679 62.9714 21.5154 63.2165 21.1812C63.4615 20.847 63.6732 20.4497 63.8514 19.9893L64.5198 18.2737L59.6294 6.04215Z" fill="#FF4400"/>
<path d="M77.5535 5.84163C79.0091 5.84163 80.0897 6.1684 80.7952 6.82194C81.5007 7.47548 81.8535 8.51892 81.8535 9.95225V18.2515H80.5055L80.1491 16.4468H80.0599C79.7183 16.8924 79.3619 17.2674 78.9905 17.5719C78.6192 17.869 78.1884 18.0955 77.6983 18.2515C77.2156 18.4 76.6214 18.4743 75.9159 18.4743C75.1733 18.4743 74.5123 18.3443 73.933 18.0844C73.3612 17.8244 72.9081 17.4308 72.574 16.9035C72.2472 16.3762 72.0838 15.7079 72.0838 14.8984C72.0838 13.6804 72.5665 12.7446 73.532 12.0911C74.4974 11.4376 75.9679 11.0811 77.9434 11.0217L80.0488 10.9326V10.1862C80.0488 9.13161 79.8223 8.39267 79.3693 7.96935C78.9163 7.54604 78.2776 7.33438 77.4532 7.33438C76.8145 7.33438 76.2056 7.42721 75.6263 7.61288C75.047 7.79854 74.4974 8.01762 73.9776 8.27013L73.4094 6.8665C73.959 6.58429 74.5903 6.34293 75.3032 6.14241C76.0162 5.94189 76.7663 5.84163 77.5535 5.84163ZM80.0265 12.2359L78.1662 12.3139C76.6437 12.3733 75.5706 12.6221 74.9467 13.0603C74.3229 13.4984 74.011 14.1186 74.011 14.9206C74.011 15.6187 74.2227 16.1349 74.646 16.4691C75.0693 16.8033 75.63 16.9704 76.3281 16.9704C77.4124 16.9704 78.2998 16.6696 78.9905 16.068C79.6812 15.4665 80.0265 14.5642 80.0265 13.3611V12.2359Z" fill="#FF4400"/>
<path d="M90.9659 1.96496C93.0676 1.96496 94.6012 2.41798 95.5667 3.32402C96.5321 4.22264 97.0148 5.46288 97.0148 7.04474C97.0148 7.75769 96.9072 8.44094 96.6918 9.09448C96.4764 9.74059 96.1236 10.3162 95.6335 10.8212C95.1508 11.3262 94.5047 11.7272 93.6952 12.0243C92.8857 12.3139 91.8868 12.4587 90.6985 12.4587H89.2169V18.2515H85.7636V1.96496H90.9659ZM90.7877 4.79449H89.2169V9.62919H90.3532C90.9993 9.62919 91.56 9.54379 92.0353 9.37298C92.5106 9.20216 92.8782 8.93481 93.1382 8.5709C93.3981 8.207 93.5281 7.73913 93.5281 7.16728C93.5281 6.36521 93.3053 5.77108 92.8597 5.3849C92.4141 4.99129 91.7234 4.79449 90.7877 4.79449Z" fill="#FF4400"/>
<path d="M114.872 10.0859C114.872 11.341 114.716 12.4847 114.404 13.517C114.092 14.5419 113.617 15.4256 112.978 16.1683C112.347 16.911 111.545 17.4828 110.572 17.8838C109.599 18.2775 108.448 18.4743 107.119 18.4743C105.789 18.4743 104.638 18.2775 103.665 17.8838C102.692 17.4828 101.887 16.911 101.248 16.1683C100.617 15.4256 100.145 14.5382 99.8332 13.5059C99.5213 12.4736 99.3654 11.3262 99.3654 10.0636C99.3654 8.37781 99.6401 6.91106 100.19 5.6634C100.747 4.4083 101.601 3.43542 102.752 2.74475C103.903 2.05408 105.366 1.70874 107.141 1.70874C108.909 1.70874 110.36 2.05408 111.497 2.74475C112.64 3.43542 113.487 4.4083 114.037 5.6634C114.594 6.91849 114.872 8.39267 114.872 10.0859ZM102.986 10.0859C102.986 11.2222 103.127 12.2025 103.409 13.0269C103.699 13.8438 104.148 14.475 104.757 14.9206C105.366 15.3588 106.153 15.5779 107.119 15.5779C108.099 15.5779 108.894 15.3588 109.503 14.9206C110.112 14.475 110.554 13.8438 110.828 13.0269C111.11 12.2025 111.252 11.2222 111.252 10.0859C111.252 8.37781 110.932 7.0336 110.294 6.05329C109.655 5.07298 108.604 4.58283 107.141 4.58283C106.168 4.58283 105.373 4.80563 104.757 5.25122C104.148 5.68939 103.699 6.32065 103.409 7.145C103.127 7.96193 102.986 8.94223 102.986 10.0859Z" fill="#FF4400"/>
<path d="M127.861 13.7287C127.861 14.6941 127.627 15.5333 127.159 16.2463C126.691 16.9592 126.008 17.5088 125.11 17.895C124.218 18.2812 123.134 18.4743 121.857 18.4743C121.292 18.4743 120.739 18.4371 120.197 18.3629C119.662 18.2886 119.146 18.1809 118.648 18.0398C118.158 17.8913 117.69 17.7093 117.245 17.4939V14.2857C118.017 14.6273 118.819 14.9355 119.651 15.2103C120.483 15.4851 121.307 15.6224 122.124 15.6224C122.689 15.6224 123.142 15.5482 123.483 15.3996C123.832 15.2511 124.085 15.0469 124.241 14.787C124.397 14.527 124.475 14.23 124.475 13.8958C124.475 13.4873 124.337 13.1383 124.062 12.8486C123.788 12.559 123.409 12.2879 122.926 12.0354C122.451 11.7829 121.912 11.5118 121.311 11.2222C120.932 11.044 120.52 10.8286 120.074 10.5761C119.629 10.3162 119.205 10.0005 118.804 9.62919C118.403 9.25786 118.073 8.80856 117.813 8.28127C117.56 7.74655 117.434 7.10787 117.434 6.36521C117.434 5.39233 117.657 4.56055 118.103 3.86988C118.548 3.1792 119.183 2.65192 120.008 2.28801C120.839 1.91668 121.82 1.73102 122.948 1.73102C123.795 1.73102 124.601 1.83128 125.366 2.0318C126.138 2.22489 126.944 2.5071 127.783 2.87843L126.669 5.56314C125.919 5.25865 125.247 5.02471 124.653 4.86133C124.059 4.69051 123.453 4.60511 122.837 4.60511C122.406 4.60511 122.039 4.67566 121.734 4.81677C121.43 4.95044 121.2 5.14354 121.044 5.39604C120.888 5.64112 120.81 5.92704 120.81 6.25381C120.81 6.63999 120.921 6.96676 121.144 7.23412C121.374 7.49405 121.716 7.74655 122.169 7.99163C122.629 8.23671 123.201 8.52263 123.884 8.8494C124.716 9.24301 125.425 9.65519 126.012 10.0859C126.606 10.5092 127.063 11.0105 127.382 11.5898C127.701 12.1617 127.861 12.8746 127.861 13.7287Z" fill="#FF4400"/>
<path d="M12.0496 16.7926C6.8281 19.4349 1.84091 17.8936 0 16.7926L18.5764 4.41991L6.52686 5.86766L0 1.54847C2.00826 0.95564 6.72768 -0.179202 9.53925 0.0240533C11.1529 0.140711 14.8836 2.16001 18.5764 4.41991C21.3177 6.09749 24.0382 7.90766 25.8564 9.17054C23.4297 10.6103 17.2711 14.1503 12.0496 16.7926Z" fill="url(#paint0_linear_2093_56993)"/>
<defs>
<linearGradient id="paint0_linear_2093_56993" x1="12.9282" y1="0" x2="12.9282" y2="18.2516" gradientUnits="userSpaceOnUse">
<stop stop-color="#FF4B01"/>
<stop offset="1" stop-color="#CE0000"/>
</linearGradient>
</defs>
</svg>
