<svg width="128" height="26" viewBox="0 0 128 26" fill="none" xmlns="http://www.w3.org/2000/svg">
<path fill-rule="evenodd" clip-rule="evenodd" d="M12.1153 5.27549C11.8387 5.27549 11.6145 5.04014 11.6145 4.74981V0H20.8932C21.4463 0 21.8947 0.470716 21.8947 1.05137V13.7713C21.8947 20.1181 16.9934 25.2632 10.9474 25.2632C4.9013 25.2632 0 20.1181 0 13.7713V1.05137C0 0.470717 0.448412 0 1.00156 0H9.32628L5.8605 9.7815C5.73881 10.125 5.98079 10.4904 6.32986 10.4904H9.77925C10.0558 10.4904 10.28 10.7258 10.28 11.0161V19.3028C10.28 19.8888 11.0556 20.0353 11.2502 19.486L16.0341 5.98444C16.1558 5.64099 15.9138 5.27549 15.5647 5.27549H12.1153Z" fill="#FF4400"/>
<path d="M29.3587 5.63685L31.8783 16.5923L34.4346 5.63685H36.9053L39.4738 16.5274L42.1524 5.63685H44.354L40.5501 19.5389H38.2629L35.5965 8.77812L33.0158 19.5389H30.7286L26.9492 5.63685H29.3587Z" fill="#FF4400"/>
<path d="M48.1333 15.8395C48.1333 16.5145 48.3657 17.0466 48.8305 17.4361C49.2953 17.8255 49.8457 18.0202 50.4817 18.0202C51.2563 18.0202 52.0065 17.8298 52.7322 17.449C53.9553 16.8173 54.5668 15.7832 54.5668 14.3467V12.4646C54.2978 12.6463 53.9512 12.7977 53.5272 12.9189C53.1032 13.04 52.6873 13.1266 52.2796 13.1785L50.9465 13.3602C50.1474 13.4727 49.5481 13.6501 49.1485 13.8924C48.4717 14.2991 48.1333 14.9481 48.1333 15.8395ZM53.4661 11.1146C53.9716 11.0454 54.31 10.8204 54.4812 10.4396C54.5791 10.2319 54.628 9.93338 54.628 9.54396C54.628 8.74783 54.3589 8.17236 53.8208 7.81757C53.2907 7.45411 52.5283 7.27239 51.5336 7.27239C50.3838 7.27239 49.5684 7.60122 49.0874 8.2589C48.8183 8.62235 48.643 9.1632 48.5614 9.88145H46.5066C46.5474 8.16804 47.0692 6.97816 48.0722 6.31184C49.0833 5.63685 50.2534 5.29936 51.5825 5.29936C53.1236 5.29936 54.3752 5.61089 55.3374 6.23395C56.2914 6.85701 56.7684 7.82622 56.7684 9.14157V17.1505C56.7684 17.3928 56.8133 17.5875 56.903 17.7346C57.0008 17.8817 57.2006 17.9553 57.5023 17.9553C57.6001 17.9553 57.7102 17.951 57.8325 17.9423C57.9548 17.925 58.0853 17.9034 58.2239 17.8774V19.6038C57.8815 19.7076 57.6205 19.7725 57.4411 19.7985C57.2617 19.8245 57.0171 19.8374 56.7073 19.8374C55.949 19.8374 55.3986 19.5519 55.0561 18.9807C54.8767 18.6779 54.7503 18.2495 54.6769 17.6957C54.2285 18.3187 53.5843 18.8596 52.7444 19.3182C51.9046 19.7769 50.9791 20.0062 49.968 20.0062C48.753 20.0062 47.7583 19.6168 46.9836 18.8379C46.2171 18.0505 45.8339 17.0683 45.8339 15.8914C45.8339 14.602 46.2131 13.6025 46.9714 12.8929C47.7297 12.1833 48.7245 11.7463 49.9558 11.5819L53.4661 11.1146Z" fill="#FF4400"/>
<path d="M68.5714 5.63685H71.0053C70.6955 6.52818 70.0065 8.56178 68.9383 11.7377C68.1392 14.1261 67.4706 16.0731 66.9324 17.5788C65.6604 21.1268 64.7634 23.2902 64.2416 24.0691C63.7197 24.8479 62.8228 25.2373 61.5508 25.2373C61.2409 25.2373 61.0004 25.2243 60.8291 25.1984C60.666 25.1724 60.4622 25.1248 60.2176 25.0556V22.9268C60.6008 23.0393 60.8781 23.1085 61.0493 23.1345C61.2205 23.1604 61.3714 23.1734 61.5018 23.1734C61.9095 23.1734 62.2072 23.0999 62.3947 22.9527C62.5904 22.8143 62.7535 22.6412 62.8839 22.4335C62.9247 22.3643 63.0715 22.0095 63.3243 21.3691C63.577 20.7288 63.7605 20.2528 63.8746 19.9413L59.0312 5.63685H61.5263L65.0366 16.9558L68.5714 5.63685Z" fill="#FF4400"/>
<path d="M74.6012 15.8395C74.6012 16.5145 74.8336 17.0466 75.2984 17.4361C75.7632 17.8255 76.3136 18.0202 76.9496 18.0202C77.7242 18.0202 78.4744 17.8298 79.2001 17.449C80.4232 16.8173 81.0348 15.7832 81.0348 14.3467V12.4646C80.7657 12.6463 80.4191 12.7977 79.9951 12.9189C79.5711 13.04 79.1553 13.1266 78.7476 13.1785L77.4144 13.3602C76.6153 13.4727 76.016 13.6501 75.6164 13.8924C74.9396 14.2991 74.6012 14.9481 74.6012 15.8395ZM79.934 11.1146C80.4395 11.0454 80.7779 10.8204 80.9491 10.4396C81.047 10.2319 81.0959 9.93338 81.0959 9.54396C81.0959 8.74783 80.8268 8.17236 80.2887 7.81757C79.7587 7.45411 78.9963 7.27239 78.0015 7.27239C76.8518 7.27239 76.0364 7.60122 75.5553 8.2589C75.2862 8.62235 75.1109 9.1632 75.0293 9.88145H72.9745C73.0153 8.16804 73.5372 6.97816 74.5401 6.31184C75.5512 5.63685 76.7213 5.29936 78.0504 5.29936C79.5915 5.29936 80.8431 5.61089 81.8053 6.23395C82.7593 6.85701 83.2363 7.82622 83.2363 9.14157V17.1505C83.2363 17.3928 83.2812 17.5875 83.3709 17.7346C83.4687 17.8817 83.6685 17.9553 83.9702 17.9553C84.0681 17.9553 84.1781 17.951 84.3004 17.9423C84.4228 17.925 84.5532 17.9034 84.6918 17.8774V19.6038C84.3494 19.7076 84.0884 19.7725 83.909 19.7985C83.7297 19.8245 83.485 19.8374 83.1752 19.8374C82.4169 19.8374 81.8665 19.5519 81.524 18.9807C81.3446 18.6779 81.2182 18.2495 81.1448 17.6957C80.6964 18.3187 80.0522 18.8596 79.2123 19.3182C78.3725 19.7769 77.447 20.0062 76.4359 20.0062C75.221 20.0062 74.2262 19.6168 73.4515 18.8379C72.6851 18.0505 72.3018 17.0683 72.3018 15.8914C72.3018 14.602 72.681 13.6025 73.4393 12.8929C74.1976 12.1833 75.1924 11.7463 76.4237 11.5819L79.934 11.1146Z" fill="#FF4400"/>
<path d="M96.0545 12.4646C96.0545 11.3742 95.818 10.4093 95.345 9.56992C94.8803 8.73052 94.1219 8.31082 93.0701 8.31082C91.8062 8.31082 90.9378 8.94686 90.4649 10.2189C90.2203 10.8939 90.0979 11.7506 90.0979 12.7891C90.0979 14.4333 90.5097 15.5885 91.3333 16.2548C91.8225 16.6443 92.4015 16.839 93.0701 16.839C94.0404 16.839 94.7783 16.4409 95.2839 15.6448C95.7976 14.8486 96.0545 13.7886 96.0545 12.4646ZM94.073 5.0787C95.6304 5.0787 96.9473 5.68878 98.0236 6.90894C99.1081 8.1291 99.6504 9.92039 99.6504 12.2828C99.6504 14.7751 99.1204 16.6745 98.0603 17.9812C97.0085 19.2879 95.6508 19.9413 93.9874 19.9413C92.9274 19.9413 92.0468 19.66 91.3455 19.0976C90.9623 18.786 90.5872 18.3317 90.2203 17.7346V25.1075H86.7711V5.39023H90.1102V7.48007C90.4853 6.86567 90.8848 6.38106 91.3088 6.02627C92.0834 5.39455 93.0049 5.0787 94.073 5.0787Z" fill="#FF4400"/>
<path d="M109.533 12.6593C109.313 12.8064 109.089 12.9275 108.86 13.0227C108.64 13.1093 108.334 13.1915 107.943 13.2693L107.16 13.4251C106.426 13.5636 105.9 13.7323 105.582 13.9313C105.044 14.2688 104.775 14.7924 104.775 15.502C104.775 16.1337 104.938 16.5923 105.264 16.8779C105.599 17.1548 106.002 17.2933 106.475 17.2933C107.225 17.2933 107.914 17.0596 108.542 16.5923C109.178 16.125 109.509 15.2727 109.533 14.0352V12.6593ZM107.417 10.9329C108.061 10.8463 108.522 10.7382 108.799 10.6084C109.297 10.3834 109.545 10.0329 109.545 9.55694C109.545 8.97715 109.354 8.57908 108.97 8.36274C108.595 8.13775 108.041 8.02525 107.307 8.02525C106.483 8.02525 105.9 8.24159 105.558 8.67427C105.313 8.99446 105.15 9.42714 105.069 9.97232H101.705C101.779 8.73485 102.105 7.71805 102.684 6.92192C103.605 5.67579 105.187 5.05273 107.429 5.05273C108.889 5.05273 110.185 5.35994 111.319 5.97434C112.452 6.58875 113.019 7.74834 113.019 9.4531V15.9433C113.019 16.3933 113.027 16.9385 113.043 17.5788C113.068 18.0634 113.137 18.3923 113.251 18.5654C113.365 18.7384 113.537 18.8812 113.765 18.9937V19.5389H109.973C109.867 19.2533 109.794 18.9851 109.753 18.7341C109.712 18.4832 109.68 18.1976 109.655 17.8774C109.174 18.4312 108.62 18.9029 107.992 19.2923C107.242 19.7509 106.394 19.9802 105.448 19.9802C104.241 19.9802 103.242 19.6168 102.451 18.8899C101.668 18.1543 101.277 17.1159 101.277 15.7746C101.277 14.0352 101.909 12.7761 103.173 11.9973C103.866 11.5732 104.885 11.2704 106.231 11.0886L107.417 10.9329Z" fill="#FF4400"/>
<path d="M116.664 22.2518L117.104 22.2778C117.446 22.2951 117.773 22.2821 118.083 22.2388C118.392 22.1956 118.653 22.096 118.865 21.9403C119.069 21.7932 119.257 21.486 119.428 21.0187C119.607 20.5514 119.681 20.2658 119.648 20.162L114.756 5.39023H118.633L121.544 15.8265L124.296 5.39023H128.002L123.427 19.3052C122.547 21.9879 121.85 23.6494 121.336 24.2897C120.822 24.9387 119.795 25.2633 118.254 25.2633C117.944 25.2633 117.695 25.2589 117.508 25.2503C117.32 25.2503 117.039 25.2373 116.664 25.2113V22.2518Z" fill="#FF4400"/>
</svg>
