<svg width="67" height="33" viewBox="0 0 67 33" fill="none" xmlns="http://www.w3.org/2000/svg">
<path d="M18.7876 15.8448H15.7305L12.1189 5.62075L8.51462 15.8448H5.45753L0 0.114397H3.76482L7.07727 10.6898L10.6597 0.064209H13.673L17.2554 10.6898L20.5679 0.114397H24.216L18.7876 15.8448Z" fill="#FF4400"/>
<path d="M35.3118 15.7734L33.8526 12.2674H27.0963L25.6371 15.7734H22.0547L28.8985 0H32.1453L38.9891 15.7734H35.3118ZM30.4745 4.12977L28.3513 9.19877H32.5976L30.4745 4.12977Z" fill="#FF4400"/>
<path d="M46.0395 9.50734V15.7737H42.5228V9.57904L36.3867 0.11499H40.4945L44.3031 6.38134L48.1554 0.11499H52.1537L46.0395 9.50734Z" fill="#FF4400"/>
<path d="M62.8451 15.7734L61.3859 12.2674H54.6297L53.1704 15.7734H49.6172L56.4318 0H59.6713L66.5224 15.7734H62.8451ZM58.0078 4.12977L55.8846 9.19877H60.131L58.0078 4.12977Z" fill="#FF4400"/>
<path d="M57.2395 21.5598C56.9237 21.5589 56.6107 21.6192 56.3187 21.7373C56.0266 21.8554 55.7611 22.029 55.5374 22.2482C55.3137 22.4673 55.1363 22.7277 55.0152 23.0143C54.8941 23.301 54.8318 23.6083 54.8318 23.9187V28.6794C54.8138 29.0006 54.8626 29.322 54.9753 29.624C55.0879 29.926 55.2621 30.2023 55.4871 30.4359C55.7121 30.6695 55.9833 30.8556 56.2839 30.9828C56.5846 31.11 56.9085 31.1756 57.2359 31.1756C57.5632 31.1756 57.8871 31.11 58.1878 30.9828C58.4885 30.8556 58.7596 30.6695 58.9846 30.4359C59.2096 30.2023 59.3838 29.926 59.4965 29.624C59.6091 29.322 59.658 29.0006 59.6399 28.6794V23.9187C59.6399 23.2931 59.387 22.6931 58.9369 22.2507C58.4867 21.8083 57.8761 21.5598 57.2395 21.5598Z" fill="white"/>
<path d="M57.2369 21.222C57.9057 21.2239 58.5509 21.4651 59.0518 21.9006C59.5527 22.3361 59.875 22.936 59.9583 23.588H62.5485V20.1394H51.918V23.588H54.5154C54.5973 22.9353 54.9191 22.3346 55.4204 21.8988C55.9216 21.463 56.5676 21.2223 57.2369 21.222Z" fill="url(#paint0_linear_2093_56969)"/>
<path d="M62.8867 23.588H66.4764V21.8817C66.4764 21.4196 66.2896 20.9764 65.9571 20.6497C65.6246 20.323 65.1737 20.1394 64.7035 20.1394H62.8867V23.588Z" fill="url(#paint1_linear_2093_56969)"/>
<path d="M57.2369 31.4041C56.5676 31.4038 55.9216 31.1631 55.4204 30.7273C54.9191 30.2916 54.5973 29.6908 54.5154 29.0381H51.918V32.4867H62.5485V29.0381H59.9583C59.875 29.6902 59.5527 30.2901 59.0518 30.7255C58.5509 31.161 57.9057 31.4023 57.2369 31.4041Z" fill="url(#paint2_linear_2093_56969)"/>
<path d="M66.474 23.9187H59.9805V28.7081H66.474V23.9187Z" fill="url(#paint3_linear_2093_56969)"/>
<path d="M51.5824 29.0381H48V30.7517C48 31.2118 48.186 31.6531 48.5172 31.9785C48.8483 32.3039 49.2974 32.4867 49.7657 32.4867H51.5824V29.0381Z" fill="url(#paint4_linear_2093_56969)"/>
<path d="M62.8867 29.0381V32.4867H64.7035C65.1724 32.4867 65.6223 32.3042 65.9546 31.979C66.2869 31.6538 66.4745 31.2125 66.4764 30.7517V29.0381H62.8867Z" fill="url(#paint5_linear_2093_56969)"/>
<path d="M48 28.7081H54.4936V23.9187H48V28.7081Z" fill="url(#paint6_linear_2093_56969)"/>
<path d="M51.5824 23.588V20.1394H49.7657C49.5332 20.1394 49.303 20.1845 49.0883 20.2722C48.8736 20.3598 48.6786 20.4883 48.5146 20.6501C48.3505 20.812 48.2206 21.0041 48.1323 21.2155C48.044 21.4268 47.9991 21.6532 48 21.8817V23.588H51.5824Z" fill="url(#paint7_linear_2093_56969)"/>
<path d="M5.67578 22.1853H8.19156C9.07776 22.1233 9.96487 22.2931 10.7617 22.6774C10.9739 22.8325 11.1518 23.028 11.2848 23.2521C11.4177 23.4762 11.503 23.7242 11.5354 23.9814C11.5678 24.2385 11.5466 24.4994 11.4733 24.7483C11.3999 24.9973 11.2759 25.2292 11.1085 25.43C10.7657 25.7747 10.3118 25.9931 9.82342 26.0484V26.1348C11.1833 26.3476 11.8632 27.0058 11.8632 28.1295C11.8694 28.4503 11.798 28.768 11.6551 29.0568C11.5122 29.3456 11.3016 29.5974 11.0405 29.7917C10.3825 30.2447 9.58633 30.4652 8.78311 30.4167H5.67578V22.1853ZM6.70929 25.7093H8.41594C8.97098 25.7541 9.52759 25.6434 10.0206 25.3901C10.188 25.267 10.3203 25.1039 10.4049 24.9165C10.4894 24.7291 10.5233 24.5236 10.5034 24.3196C10.5175 24.121 10.4748 23.9224 10.3799 23.7462C10.285 23.57 10.1417 23.4232 9.96621 23.3223C9.43308 23.08 8.84623 22.9725 8.25956 23.0098H6.70929V25.7093ZM6.70929 26.5204V29.5989H8.57233C9.1418 29.6382 9.70967 29.5034 10.1974 29.2133C10.3832 29.0712 10.5302 28.8863 10.6251 28.6751C10.72 28.464 10.7599 28.2331 10.7413 28.0031C10.7573 27.7845 10.7142 27.5656 10.6164 27.3683C10.5185 27.1711 10.3693 27.0025 10.1838 26.8795C9.66301 26.6058 9.07382 26.4813 8.48394 26.5204H6.70929Z" fill="#FF4400"/>
<path d="M19.9035 30.8169L19.7075 29.898H19.6618C19.4055 30.247 19.0768 30.5282 18.7016 30.7195C18.3224 30.8734 17.9185 30.9467 17.5129 30.9353C16.9735 30.9689 16.4413 30.7906 16.0171 30.434C15.8349 30.2598 15.6917 30.0443 15.5979 29.8034C15.5041 29.5624 15.4621 29.3022 15.4749 29.0416C15.4749 27.7421 16.5113 27.0598 18.5841 26.9948H19.6749V26.5423C19.7064 26.1377 19.5893 25.7358 19.3483 25.4214C19.2077 25.2885 19.043 25.1877 18.8643 25.1254C18.6856 25.0632 18.4969 25.0407 18.3097 25.0594C17.678 25.0818 17.0584 25.2505 16.4939 25.5537L16.1934 24.8018C16.8686 24.4403 17.6129 24.2497 18.3685 24.2449C18.9734 24.192 19.5761 24.3724 20.0668 24.7531C20.2651 24.968 20.4174 25.2262 20.5132 25.5098C20.6091 25.7934 20.6462 26.0958 20.622 26.3961V30.81L19.9035 30.8169ZM17.7088 30.1207C18.2259 30.1519 18.7348 29.9728 19.1327 29.6195C19.3076 29.4406 19.4443 29.2236 19.5333 28.9833C19.6224 28.743 19.6618 28.4851 19.6488 28.2271V27.6423L18.6755 27.6841C18.0996 27.6684 17.5279 27.7922 17.0034 28.0461C16.8396 28.1464 16.7052 28.2933 16.6153 28.4704C16.5253 28.6474 16.4833 28.8476 16.4939 29.0486C16.4844 29.2005 16.5083 29.3527 16.5639 29.4929C16.6195 29.6332 16.7051 29.7576 16.8139 29.8562C17.0742 30.0535 17.3901 30.1493 17.7088 30.1277V30.1207Z" fill="#FF4400"/>
<path d="M29.3805 30.4171V26.4928C29.4091 26.2932 29.3885 26.0901 29.3202 25.8992C29.2519 25.7084 29.1379 25.535 28.9869 25.3926C28.836 25.2501 28.6522 25.1425 28.4499 25.0781C28.2477 25.0137 28.0324 24.9942 27.8208 25.0212C27.5358 24.998 27.2488 25.0321 26.9788 25.1211C26.7088 25.2102 26.4618 25.3523 26.2542 25.5379C25.8736 26.0284 25.6961 26.6332 25.7551 27.2385V30.4237H24.75V24.3476H25.5888L25.7551 25.1782H25.8036C26.0262 24.8719 26.3363 24.6315 26.6978 24.4849C27.0887 24.3226 27.5116 24.2402 27.9386 24.2429C28.6061 24.1958 29.2683 24.3847 29.7964 24.7727C30.019 24.9974 30.1889 25.2637 30.2952 25.5545C30.4015 25.8452 30.4418 26.1538 30.4133 26.4601V30.4237L29.3805 30.4171Z" fill="#FF4400"/>
<path d="M36.032 27.2431C36.2734 26.9283 36.5322 26.6275 36.8071 26.342L38.8895 24.2416H40.0521L37.4246 26.8919L40.2229 30.4236H39.0471L36.7677 27.5148L36.032 28.1111V30.4103H35.0664V21.6575H36.032V26.2956C36.032 26.501 36.032 26.8191 35.986 27.2497L36.032 27.2431Z" fill="#FF4400"/>
<defs>
<linearGradient id="paint0_linear_2093_56969" x1="726.636" y1="157.775" x2="810.982" y2="-5.7205" gradientUnits="userSpaceOnUse">
<stop stop-color="#FF4400"/>
<stop offset="0.5" stop-color="white"/>
<stop offset="1" stop-color="#FF6700"/>
</linearGradient>
<linearGradient id="paint1_linear_2093_56969" x1="301.1" y1="173.639" x2="395.994" y2="111.548" gradientUnits="userSpaceOnUse">
<stop stop-color="#FF4400"/>
<stop offset="0.5" stop-color="#FFB40D"/>
<stop offset="1" stop-color="#FF6700"/>
</linearGradient>
<linearGradient id="paint2_linear_2093_56969" x1="786.061" y1="197.332" x2="870.469" y2="33.7754" gradientUnits="userSpaceOnUse">
<stop stop-color="#FF4400"/>
<stop offset="0.5" stop-color="#FFB40D"/>
<stop offset="1" stop-color="#FF6700"/>
</linearGradient>
<linearGradient id="paint3_linear_2093_56969" x1="505.375" y1="254.096" x2="647.377" y2="133.071" gradientUnits="userSpaceOnUse">
<stop stop-color="#FF4400"/>
<stop offset="0.5" stop-color="white"/>
<stop offset="1" stop-color="#FF6700"/>
</linearGradient>
<linearGradient id="paint4_linear_2093_56969" x1="285.084" y1="181.503" x2="379.862" y2="119.554" gradientUnits="userSpaceOnUse">
<stop stop-color="#FF4400"/>
<stop offset="0.5" stop-color="#FFB40D"/>
<stop offset="1" stop-color="#FF6700"/>
</linearGradient>
<linearGradient id="paint5_linear_2093_56969" x1="320.305" y1="211.851" x2="415.162" y2="149.761" gradientUnits="userSpaceOnUse">
<stop stop-color="#FF4400"/>
<stop offset="0.5" stop-color="#FFB40D"/>
<stop offset="1" stop-color="#FF6700"/>
</linearGradient>
<linearGradient id="paint6_linear_2093_56969" x1="463.2" y1="218.655" x2="605.135" y2="97.6419" gradientUnits="userSpaceOnUse">
<stop stop-color="#FF4400"/>
<stop offset="0.5" stop-color="#FFB40D"/>
<stop offset="1" stop-color="#FF6700"/>
</linearGradient>
<linearGradient id="paint7_linear_2093_56969" x1="265.883" y1="143.256" x2="360.7" y2="81.3419" gradientUnits="userSpaceOnUse">
<stop stop-color="#FF4400"/>
<stop offset="0.5" stop-color="#FFB40D"/>
<stop offset="1" stop-color="#FF6700"/>
</linearGradient>
</defs>
</svg>
