<svg width="472" height="548" viewBox="0 0 472 548" fill="none" xmlns="http://www.w3.org/2000/svg">
<rect x="0.5" y="0.5" width="471" height="547" rx="25.5" fill="#FCFCFC" stroke="#D3D3D3"/>
<path d="M275.931 328.623C277.706 322.779 277.793 316.552 276.182 310.661C274.57 304.769 271.326 299.454 266.823 295.327C262.32 291.201 256.742 288.431 250.733 287.339C244.723 286.246 238.528 286.875 232.861 289.153C231.549 285.042 229.323 281.281 226.351 278.153C222.865 274.687 218.369 272.418 213.511 271.673C214.532 267.346 214.324 262.819 212.91 258.603C211.497 254.388 208.934 250.651 205.511 247.813C207.22 243.213 207.33 238.17 205.822 233.5C204.315 228.829 201.278 224.802 197.202 222.069C193.126 219.335 188.248 218.054 183.355 218.432C178.461 218.81 173.838 220.826 170.231 224.153C167.169 223.018 163.835 222.838 160.67 223.639C157.504 224.439 154.656 226.18 152.502 228.634C150.347 231.087 148.988 234.137 148.604 237.379C148.22 240.622 148.829 243.904 150.351 246.793C150.571 247.203 150.801 247.603 151.051 247.993C148.616 249.604 146.529 251.688 144.914 254.12C143.3 256.552 142.19 259.284 141.651 262.153C139.76 259.305 137.228 256.939 134.257 255.248C131.286 253.557 127.96 252.586 124.545 252.415C121.131 252.244 117.724 252.877 114.599 254.263C111.474 255.648 108.717 257.749 106.552 260.394C104.387 263.039 102.872 266.156 102.131 269.493C101.39 272.831 101.443 276.296 102.285 279.609C103.128 282.922 104.736 285.991 106.981 288.57C109.226 291.148 112.045 293.163 115.211 294.453C115.051 294.763 114.901 295.083 114.751 295.403H113.961C112.728 295.401 111.496 295.464 110.271 295.593H110.031C109.561 295.643 109.101 295.703 108.641 295.773C108.181 295.843 107.491 295.963 106.921 296.083C106.511 296.163 106.101 296.253 105.701 296.353L105.231 296.473C104.951 296.543 104.671 296.613 104.391 296.703L103.621 296.923C101.618 297.541 99.6769 298.341 97.8205 299.313C97.4105 299.533 96.9905 299.753 96.5905 299.993C96.1905 300.233 95.7605 300.473 95.3605 300.733C95.2762 300.776 95.1959 300.826 95.1205 300.883C94.7205 301.143 94.3205 301.403 93.9305 301.683C93.5405 301.963 93.0705 302.293 92.6605 302.613L92.3805 302.833L91.4405 303.593C91.0405 303.933 90.6405 304.283 90.2605 304.593C89.8805 304.903 89.5705 305.243 89.2605 305.593L89.1005 305.753C88.7605 306.093 88.4305 306.443 88.1005 306.803C87.7505 307.193 87.4105 307.583 87.1005 307.993C86.7905 308.403 86.4405 308.803 86.1005 309.223L85.6305 309.853C85.1705 310.493 84.7305 311.143 84.3205 311.853C84.1805 312.083 84.0405 312.303 83.9105 312.533C83.6205 313.003 83.3505 313.533 83.0905 313.983C82.9805 314.193 82.8705 314.403 82.7705 314.613C82.3972 315.346 82.0639 316.087 81.7705 316.833C81.5805 317.273 81.4105 317.713 81.2405 318.153C80.7577 319.46 80.3569 320.796 80.0405 322.153C79.9705 322.423 79.9105 322.683 79.8605 322.953C79.8105 323.223 79.7805 323.283 79.7505 323.453C79.7205 323.623 79.6605 323.923 79.6205 324.163C78.5861 329.97 79.0361 335.944 80.9287 341.531C82.8212 347.118 86.0949 352.135 90.4457 356.118C94.7966 360.101 100.083 362.919 105.815 364.312C111.547 365.704 117.537 365.626 123.231 364.083C110.901 393.153 100.771 429.963 97.6505 475.153C98.3805 477.913 113.101 428.153 142.561 382.553C142.831 382.933 143.111 383.303 143.401 383.673C143.511 383.813 143.621 383.963 143.751 384.103C143.881 384.243 144.221 384.683 144.471 384.963C144.531 385.043 144.601 385.113 144.661 385.183C145.051 385.623 145.461 386.053 145.881 386.463C146.061 386.653 146.241 386.823 146.421 386.993C146.5 387.081 146.587 387.161 146.681 387.233L147.271 387.763C147.591 388.063 147.921 388.343 148.271 388.613L149.161 389.293C149.651 389.673 150.161 390.023 150.671 390.353C151.181 390.683 151.511 390.903 151.951 391.163C152.391 391.423 152.801 391.653 153.231 391.883L153.331 391.933C153.781 392.163 154.231 392.393 154.691 392.603C155.151 392.813 155.691 393.053 156.231 393.253L156.821 393.483C158.648 394.161 160.537 394.66 162.461 394.973L163.081 395.073C163.611 395.153 164.141 395.213 164.671 395.263H165.281C165.44 395.273 165.601 395.273 165.761 395.263H166.601H167.441C167.961 395.263 168.441 395.263 169.001 395.263C169.361 395.263 169.711 395.263 170.061 395.183L170.681 395.133C171.681 395.033 172.611 394.883 173.551 394.693C173.441 395.431 173.388 396.177 173.391 396.923C173.391 397.063 173.391 397.193 173.391 397.333C173.391 397.473 173.391 397.873 173.391 398.143C173.391 398.413 173.391 398.663 173.471 398.923C173.522 399.384 173.599 399.841 173.701 400.293C173.741 400.513 173.791 400.733 173.851 400.953C173.911 401.213 173.991 401.463 174.071 401.713C174.151 401.963 174.231 402.213 174.321 402.463C174.411 402.713 174.511 402.953 174.611 403.193C174.711 403.433 174.791 403.623 174.891 403.833L174.951 403.953C175.061 404.173 175.171 404.393 175.291 404.603C175.411 404.813 175.511 405.003 175.631 405.203L175.871 405.593C175.981 405.763 176.081 405.923 176.201 406.083C176.66 406.752 177.172 407.384 177.731 407.973L178.201 408.453C178.381 408.633 178.571 408.803 178.761 408.973L179.341 409.463C180.918 410.746 182.727 411.714 184.671 412.313C184.921 412.393 185.171 412.473 185.431 412.533C185.951 412.67 186.478 412.776 187.011 412.853L187.511 412.923C188.174 413.006 188.842 413.046 189.511 413.043C189.881 413.043 190.241 413.043 190.601 413.043H190.681L191.521 412.953L191.911 412.903C192.487 412.822 193.058 412.705 193.621 412.553C193.811 412.553 194.001 412.453 194.191 412.383C194.776 412.212 195.351 412.005 195.911 411.763C196.191 411.643 196.461 411.513 196.731 411.373C196.811 411.341 196.888 411.301 196.961 411.253C197.215 411.13 197.462 410.993 197.701 410.843H197.761C198.872 410.183 199.9 409.391 200.821 408.483L201.271 408.023L201.701 407.543C201.851 407.373 201.991 407.203 202.131 407.023L202.531 406.493C203.229 405.543 203.816 404.517 204.281 403.433C204.361 403.253 204.431 403.073 204.501 402.883C204.571 402.693 204.721 402.303 204.821 402.013C204.921 401.723 204.921 401.703 204.961 401.553C205.091 401.103 205.201 400.663 205.291 400.203C205.341 399.973 205.381 399.733 205.411 399.493C205.441 399.253 205.471 399.133 205.491 398.943C205.511 398.753 205.491 398.673 205.491 398.533C205.491 398.393 205.491 398.043 205.491 397.793C205.491 397.543 205.491 397.293 205.491 397.043C205.49 396.037 205.396 395.032 205.211 394.043C206.221 394.245 207.25 394.345 208.281 394.343H209.151L209.781 394.293L210.781 394.173C211.041 394.173 211.311 394.093 211.571 394.033L212.351 393.853C212.571 393.803 212.791 393.743 213.001 393.673L213.871 393.383H213.931L214.351 393.153C214.591 393.063 214.831 392.963 215.061 392.853L215.381 392.703C215.661 392.573 215.941 392.423 216.211 392.273H216.291C216.591 392.103 216.901 391.913 217.191 391.723L217.881 391.243C218.221 390.993 218.541 390.733 218.881 390.463C219.221 390.193 219.281 390.123 219.471 389.933C219.661 389.743 219.921 389.503 220.141 389.263C220.301 389.093 220.461 388.913 220.611 388.733C220.771 388.543 220.931 388.353 221.081 388.153C221.231 387.953 221.381 387.763 221.521 387.563C221.661 387.363 221.811 387.153 221.941 386.943L222.331 386.313C222.581 385.883 222.801 385.433 223.011 384.983C223.124 384.757 223.224 384.527 223.311 384.293L223.581 383.593C223.661 383.363 223.741 383.123 223.811 382.883C223.941 382.443 224.061 381.993 224.151 381.533C224.211 381.273 224.251 381.003 224.291 380.743C224.331 380.483 224.291 380.473 224.351 380.333C224.411 380.193 224.351 380.023 224.401 379.863C224.401 379.343 224.481 378.813 224.481 378.283C224.481 377.963 224.481 377.63 224.481 377.283V377.153C224.481 376.853 224.451 376.553 224.391 376.253C224.391 375.993 224.331 375.743 224.281 375.493C224.231 375.243 224.281 375.253 224.221 375.133C224.161 375.013 224.161 374.823 224.121 374.673C224.081 374.523 224.061 374.383 224.021 374.233C223.901 373.763 223.761 373.313 223.611 372.863C226.721 377.042 231.024 380.182 235.952 381.869C240.881 383.557 246.205 383.714 251.224 382.319C256.243 380.925 260.723 378.044 264.074 374.055C267.426 370.067 269.492 365.158 270.001 359.973C270.281 359.973 270.551 359.973 270.831 359.973C274.659 359.969 278.361 358.603 281.274 356.119C284.187 353.635 286.121 350.196 286.73 346.416C287.338 342.637 286.582 338.764 284.596 335.491C282.61 332.218 279.524 329.759 275.891 328.553L275.931 328.623Z" fill="url(#paint0_linear_29_12710)"/>
<path style="mix-blend-mode:multiply" opacity="0.2" d="M213.741 316.21C213.401 316.14 213.051 316.07 212.741 316.02C211.327 315.779 209.895 315.658 208.461 315.66C208.081 315.66 207.711 315.66 207.341 315.66H206.921C206.471 315.66 206.021 315.72 205.571 315.77C205.121 315.82 204.881 315.85 204.571 315.91H204.491L203.491 316.08L202.981 316.19C202.571 316.28 202.171 316.37 201.771 316.48L200.911 316.73L200.671 316.8L199.671 317.13C199.231 317.29 198.791 317.46 198.361 317.64C197.931 317.82 197.621 317.97 197.251 318.15C196.881 318.33 196.671 318.43 196.381 318.59C195.783 318.893 195.202 319.226 194.641 319.59C194.371 319.75 194.111 319.92 193.851 320.11C193.769 320.157 193.692 320.211 193.621 320.27C193.271 320.5 192.931 320.76 192.621 321.03H192.571C192.211 321.3 191.861 321.59 191.571 321.89C190.748 322.606 189.973 323.374 189.251 324.19C188.941 324.54 188.631 324.9 188.341 325.27C188.051 325.64 187.771 326.01 187.501 326.39L187.441 326.47C187.891 325.33 188.301 324.17 188.651 322.98C188.741 322.68 188.821 322.38 188.911 322.08C189.071 321.48 189.221 320.87 189.361 320.26C189.421 319.96 189.491 319.65 189.551 319.34C189.751 318.34 189.911 317.29 190.031 316.25C190.031 316.03 190.031 315.8 190.101 315.58C190.105 315.494 190.105 315.407 190.101 315.32C190.151 314.87 190.181 314.43 190.201 313.98C190.201 313.23 190.271 312.47 190.271 311.71C190.271 310.55 190.221 309.4 190.121 308.26C190.121 307.99 190.071 307.72 190.041 307.45C190.011 307.18 189.991 306.94 189.951 306.68C189.911 306.42 189.871 306.03 189.811 305.68C189.661 304.68 189.471 303.68 189.251 302.68C189.191 302.42 189.121 302.16 189.061 301.9L188.991 301.65C188.921 301.38 188.851 301.11 188.771 300.85C188.691 300.59 188.591 300.21 188.491 299.85C188.391 299.49 188.301 299.24 188.191 298.94C188.081 298.64 187.961 298.27 187.841 297.94C187.721 297.61 187.641 297.4 187.531 297.13V297.05C187.311 296.51 187.091 295.98 186.851 295.45C186.847 295.417 186.847 295.384 186.851 295.35C186.631 294.87 186.401 294.35 186.171 293.92C185.404 292.404 184.543 290.938 183.591 289.53L183.101 288.81V288.75C182.921 288.49 182.731 288.23 182.541 287.98L182.211 287.54L181.731 286.92C180.464 285.351 179.084 283.877 177.601 282.51C177.921 282.23 178.231 281.94 178.531 281.65L179.061 281.12C179.651 280.503 180.206 279.852 180.721 279.17C180.951 278.87 181.181 278.55 181.391 278.24C181.391 278.16 181.481 278.09 181.521 278.02C181.691 277.78 181.841 277.53 181.991 277.29C182.388 276.643 182.752 275.975 183.081 275.29C183.231 274.97 183.371 274.65 183.501 274.29C183.501 274.23 183.551 274.17 183.571 274.12C183.711 273.78 183.831 273.44 183.951 273.12C184.071 272.8 184.161 272.49 184.251 272.17C184.251 272.05 184.321 271.93 184.351 271.81C184.381 271.69 184.481 271.33 184.531 271.09C184.581 270.85 184.591 270.86 184.611 270.75C184.681 270.45 184.741 270.16 184.791 269.86C184.791 269.77 184.791 269.68 184.791 269.6C184.791 269.52 184.861 269.16 184.891 268.93C184.921 268.7 184.891 268.55 184.961 268.35V268.04C184.961 267.76 185.011 267.47 185.021 267.18C185.031 266.89 185.021 266.44 185.021 266.06C185.019 262.866 184.316 259.711 182.964 256.817C181.611 253.923 179.64 251.361 177.191 249.31C176.489 248.716 175.747 248.172 174.971 247.68C171.573 245.485 167.626 244.289 163.581 244.23H163.181H162.301C161.073 244.309 159.851 244.459 158.641 244.68C156.181 245.12 153.411 245.81 150.511 246.6C150.731 247.01 150.961 247.41 151.211 247.8C148.725 249.417 146.596 251.523 144.952 253.991C143.308 256.458 142.185 259.234 141.651 262.15C139.76 259.302 137.228 256.937 134.257 255.245C131.286 253.554 127.96 252.584 124.545 252.413C121.131 252.241 117.724 252.874 114.599 254.26C111.474 255.646 108.717 257.746 106.552 260.391C104.387 263.037 102.872 266.153 102.131 269.491C101.39 272.828 101.443 276.293 102.285 279.606C103.128 282.919 104.736 285.989 106.981 288.567C109.226 291.145 112.045 293.16 115.211 294.45C115.051 294.76 114.901 295.08 114.751 295.4H113.961C112.728 295.398 111.496 295.461 110.271 295.59H110.031C109.561 295.64 109.101 295.7 108.641 295.77C108.181 295.84 107.491 295.96 106.921 296.08C106.511 296.16 106.101 296.25 105.701 296.35L105.231 296.47C104.951 296.54 104.671 296.61 104.391 296.7L103.621 296.92C101.618 297.538 99.6769 298.338 97.8205 299.31C97.4105 299.53 96.9905 299.75 96.5905 299.99C96.1905 300.23 95.7605 300.47 95.3605 300.73C95.2762 300.773 95.1959 300.823 95.1205 300.88C94.7205 301.14 94.3205 301.4 93.9305 301.68C93.5405 301.96 93.0705 302.29 92.6605 302.61L92.3805 302.83L91.4405 303.59C91.0405 303.93 90.6405 304.28 90.2605 304.59C89.8805 304.9 89.5705 305.24 89.2605 305.59L89.1005 305.75C88.7605 306.09 88.4305 306.44 88.1005 306.8C87.7505 307.19 87.4105 307.58 87.1005 307.99C86.7905 308.4 86.4405 308.8 86.1005 309.22L85.6305 309.85C85.1705 310.49 84.7305 311.14 84.3205 311.85C84.1805 312.08 84.0405 312.3 83.9105 312.53C83.6205 313 83.3505 313.53 83.0905 313.98C82.9805 314.19 82.8705 314.4 82.7705 314.61C82.3972 315.344 82.0639 316.084 81.7705 316.83C81.5805 317.27 81.4105 317.71 81.2405 318.15C80.7577 319.458 80.3569 320.793 80.0405 322.15C79.9705 322.42 79.9105 322.68 79.8605 322.95C79.8105 323.22 79.7805 323.28 79.7505 323.45C79.7205 323.62 79.6605 323.92 79.6205 324.16C78.5861 329.967 79.0361 335.942 80.9287 341.528C82.8212 347.115 86.0949 352.132 90.4457 356.115C94.7966 360.098 100.083 362.916 105.815 364.309C111.547 365.701 117.537 365.623 123.231 364.08C110.901 393.15 100.771 429.96 97.6505 475.15C98.3805 477.91 113.101 428.15 142.561 382.55C142.831 382.93 143.111 383.3 143.401 383.67C143.511 383.81 143.621 383.96 143.751 384.1C143.881 384.24 144.221 384.68 144.471 384.96C144.531 385.04 144.601 385.11 144.661 385.18C145.051 385.62 145.461 386.05 145.881 386.46C146.061 386.65 146.241 386.82 146.421 386.99C146.5 387.078 146.587 387.158 146.681 387.23L147.271 387.76C147.591 388.06 147.921 388.34 148.271 388.61L149.161 389.29C149.651 389.67 150.161 390.02 150.671 390.35C151.181 390.68 151.511 390.9 151.951 391.16C152.391 391.42 152.801 391.65 153.231 391.88L153.331 391.93C153.781 392.16 154.231 392.39 154.691 392.6C155.151 392.81 155.691 393.05 156.231 393.25L156.821 393.48C158.648 394.158 160.537 394.657 162.461 394.97L163.081 395.07C163.611 395.15 164.141 395.21 164.671 395.26H165.281C165.44 395.271 165.601 395.271 165.761 395.26H166.601H167.441C167.961 395.26 168.441 395.26 169.001 395.26C169.361 395.26 169.711 395.26 170.061 395.18L170.681 395.13C171.681 395.03 172.611 394.88 173.551 394.69C173.441 395.429 173.388 396.174 173.391 396.92C173.391 397.06 173.391 397.19 173.391 397.33C173.391 397.47 173.391 397.87 173.391 398.14C173.391 398.41 173.391 398.66 173.471 398.92C173.522 399.381 173.599 399.838 173.701 400.29C173.741 400.51 173.791 400.73 173.851 400.95C173.911 401.21 173.991 401.46 174.071 401.71C174.151 401.96 174.231 402.21 174.321 402.46C174.411 402.71 174.511 402.95 174.611 403.19C174.711 403.43 174.791 403.62 174.891 403.83L174.951 403.95C175.061 404.17 175.171 404.39 175.291 404.6C175.411 404.81 175.511 405 175.631 405.2L175.871 405.59C175.981 405.76 176.081 405.92 176.201 406.08C176.66 406.75 177.172 407.382 177.731 407.97L178.201 408.45C178.381 408.63 178.571 408.8 178.761 408.97L179.341 409.46C180.918 410.744 182.727 411.711 184.671 412.31C184.921 412.39 185.171 412.47 185.431 412.53C185.951 412.667 186.478 412.774 187.011 412.85L187.511 412.92C188.174 413.003 188.842 413.043 189.511 413.04C189.881 413.04 190.241 413.04 190.601 413.04H190.681L191.521 412.95L191.911 412.9C192.487 412.819 193.058 412.703 193.621 412.55C193.811 412.55 194.001 412.45 194.191 412.38C194.776 412.21 195.351 412.003 195.911 411.76C196.191 411.64 196.461 411.51 196.731 411.37C196.811 411.338 196.888 411.298 196.961 411.25C197.215 411.128 197.462 410.991 197.701 410.84H197.761C198.872 410.18 199.9 409.388 200.821 408.48L201.271 408.02L201.701 407.54C201.851 407.37 201.991 407.2 202.131 407.02L202.531 406.49C203.225 405.538 203.812 404.512 204.281 403.43C204.361 403.25 204.431 403.07 204.501 402.88C204.571 402.69 204.721 402.3 204.821 402.01C204.921 401.72 204.921 401.7 204.961 401.55C205.091 401.1 205.201 400.66 205.291 400.2C205.341 399.97 205.381 399.73 205.411 399.49C205.441 399.25 205.471 399.13 205.491 398.94C205.511 398.75 205.491 398.67 205.491 398.53C205.491 398.39 205.491 398.04 205.491 397.79C205.491 397.54 205.491 397.29 205.491 397.04C205.49 396.034 205.396 395.03 205.211 394.04C206.221 394.242 207.25 394.343 208.281 394.34H209.151L209.781 394.29L210.781 394.17C211.041 394.17 211.311 394.09 211.571 394.03L212.351 393.85C212.571 393.8 212.791 393.74 213.001 393.67L213.871 393.38H213.931L214.351 393.15C214.591 393.06 214.831 392.96 215.061 392.85L215.381 392.7C215.661 392.57 215.941 392.42 216.211 392.27H216.291C216.591 392.1 216.901 391.91 217.191 391.72L217.881 391.24C218.221 390.99 218.541 390.73 218.881 390.46C219.221 390.19 219.281 390.12 219.471 389.93C219.661 389.74 219.921 389.49 220.141 389.26C220.301 389.09 220.461 388.91 220.611 388.73C220.771 388.54 220.931 388.35 221.081 388.15C221.231 387.95 221.381 387.76 221.521 387.56C221.661 387.36 221.811 387.15 221.941 386.94L222.331 386.31C222.581 385.88 222.801 385.43 223.011 384.98C223.124 384.754 223.224 384.524 223.311 384.29L223.581 383.59C223.661 383.36 223.741 383.12 223.811 382.88C223.941 382.44 224.061 381.99 224.151 381.53C224.211 381.27 224.251 381 224.291 380.74C224.331 380.48 224.291 380.47 224.351 380.33C224.411 380.19 224.351 380.02 224.401 379.86C224.401 379.34 224.481 378.81 224.481 378.28C224.481 377.96 224.481 377.627 224.481 377.28V377.15C224.481 376.85 224.451 376.55 224.391 376.25C224.391 375.99 224.331 375.74 224.281 375.49C224.231 375.24 224.281 375.25 224.221 375.13C224.161 375.01 224.161 374.82 224.121 374.67C224.081 374.52 224.061 374.38 224.021 374.23C223.901 373.76 223.761 373.31 223.611 372.86C223.588 372.779 223.562 372.699 223.531 372.62C223.421 372.33 223.311 372.04 223.181 371.76C223.051 371.48 222.931 371.2 222.791 370.93C222.651 370.66 222.501 370.39 222.351 370.12C221.857 369.271 221.285 368.471 220.641 367.73C219.898 366.859 219.063 366.071 218.151 365.38L218.411 365.27H218.481C218.841 365.12 219.191 364.96 219.541 364.79C219.921 364.61 220.291 364.42 220.661 364.22C221.021 364.02 221.381 363.82 221.731 363.6L222.731 362.98C223.121 362.72 223.491 362.45 223.851 362.18C224.211 361.91 224.481 361.7 224.781 361.45C225.081 361.2 225.421 360.91 225.721 360.63C226.021 360.35 226.271 360.12 226.541 359.85L226.691 359.71C226.961 359.44 227.221 359.16 227.471 358.88C227.721 358.6 227.831 358.49 227.991 358.29L228.131 358.13C228.251 357.99 228.371 357.84 228.481 357.69C228.997 357.071 229.475 356.419 229.911 355.74C230.091 355.48 230.261 355.21 230.411 354.95C230.415 354.927 230.415 354.904 230.411 354.88C230.624 354.527 230.824 354.177 231.011 353.83C231.211 353.46 231.401 353.09 231.581 352.71C231.761 352.33 231.921 351.99 232.081 351.62C232.084 351.581 232.084 351.54 232.081 351.5C232.231 351.14 232.381 350.77 232.511 350.4C232.641 350.03 232.751 349.73 232.871 349.4C232.866 349.341 232.866 349.28 232.871 349.22C232.981 348.85 233.091 348.48 233.191 348.1C233.291 347.72 233.331 347.54 233.391 347.26C233.451 346.98 233.491 346.82 233.541 346.59C233.537 346.554 233.537 346.517 233.541 346.48C233.671 345.79 233.781 345.08 233.861 344.36L233.921 343.68C233.925 343.597 233.925 343.514 233.921 343.43C233.921 343.16 233.921 342.89 233.971 342.62C234.021 342.35 233.971 341.9 233.971 341.54C233.975 335.616 231.939 329.871 228.206 325.27C224.472 320.67 219.269 317.496 213.471 316.28L213.741 316.21Z" fill="url(#paint1_linear_29_12710)"/>
<path d="M205.99 373.23C205.993 374.237 206.09 375.241 206.28 376.23C204.622 375.666 202.882 375.379 201.13 375.38C200.273 375.379 199.416 375.449 198.57 375.59C198.933 373.405 198.841 371.17 198.301 369.022C197.76 366.875 196.783 364.862 195.43 363.109C194.077 361.357 192.377 359.902 190.437 358.835C188.496 357.769 186.356 357.114 184.151 356.911C181.947 356.709 179.723 356.963 177.621 357.658C175.519 358.353 173.582 359.474 171.932 360.951C170.283 362.428 168.955 364.229 168.033 366.242C167.11 368.254 166.612 370.436 166.57 372.65C164.316 371.767 161.891 371.403 159.476 371.585C157.061 371.766 154.719 372.489 152.621 373.699C150.524 374.909 148.725 376.576 147.359 378.575C145.993 380.575 145.095 382.856 144.73 385.25C147.59 388.462 151.098 391.032 155.022 392.79C158.947 394.548 163.2 395.455 167.5 395.45C168.583 395.449 169.664 395.392 170.74 395.28L173.46 397.48C173.532 400.292 174.339 403.036 175.8 405.44C177.261 407.844 179.325 409.824 181.788 411.182C184.251 412.541 187.027 413.232 189.839 413.186C192.652 413.14 195.403 412.359 197.82 410.92C198.789 409.93 199.623 408.817 200.3 407.61H201.19H201.76C204.303 404.683 205.702 400.936 205.7 397.06C205.7 396.053 205.606 395.049 205.42 394.06C206.431 394.262 207.46 394.362 208.49 394.36C211.624 394.369 214.69 393.458 217.31 391.74C217.315 391.657 217.315 391.573 217.31 391.49C217.314 390.5 217.22 389.512 217.03 388.54C218.076 388.891 219.155 389.136 220.25 389.27C223.052 386.292 224.611 382.358 224.61 378.27C224.61 377.95 224.61 377.616 224.61 377.27V377.15C224.61 376.85 224.58 376.55 224.52 376.25C224.52 375.99 224.46 375.74 224.41 375.49C224.36 375.24 224.41 375.25 224.35 375.13C224.29 375.01 224.29 374.82 224.25 374.67C224.21 374.52 224.19 374.38 224.15 374.23C224.03 373.756 223.89 373.296 223.73 372.85C223.708 372.768 223.682 372.688 223.65 372.61C223.54 372.32 223.43 372.03 223.3 371.75C223.17 371.47 223.05 371.19 222.91 370.92C222.77 370.65 222.62 370.38 222.47 370.11C221.231 368.394 219.824 366.806 218.27 365.37L218.55 365.25H218.62C218.98 365.1 219.33 364.94 219.68 364.77C220.06 364.59 220.43 364.4 220.8 364.2C221.16 364 221.52 363.8 221.87 363.58L222.87 362.96C223.26 362.7 223.63 362.43 223.99 362.16C224.35 361.89 224.62 361.68 224.92 361.43C225.22 361.18 225.56 360.89 225.86 360.61C226.16 360.33 226.41 360.1 226.68 359.83L226.83 359.69C227.1 359.42 227.36 359.14 227.61 358.86C227.86 358.58 227.97 358.47 228.13 358.27C226.243 357.52 224.231 357.137 222.2 357.14C220.079 357.129 217.976 357.537 216.012 358.341C214.049 359.144 212.263 360.327 210.757 361.822C209.251 363.316 208.055 365.093 207.237 367.051C206.419 369.008 205.996 371.108 205.99 373.23Z" fill="white"/>
<path d="M125.471 339.021C124.657 339.026 123.845 339.093 123.041 339.221C123.041 338.721 123.121 338.221 123.121 337.701C123.121 335.601 137.531 334.701 138.461 315.701C138.901 306.801 134.771 302.891 125.871 302.891C122.431 302.891 115.211 307.791 112.591 309.621C112.191 307.091 115.461 297.791 110.271 295.621C105.424 296.077 100.726 297.538 96.476 299.913C92.2262 302.287 88.5184 305.522 85.5896 309.411C82.6608 313.299 80.5754 317.756 79.4667 322.496C78.358 327.236 78.2503 332.156 79.1506 336.94C80.0508 341.724 81.9392 346.268 84.6951 350.281C87.4509 354.294 91.0136 357.688 95.1555 360.246C99.2974 362.804 103.927 364.47 108.75 365.137C113.572 365.804 118.48 365.458 123.161 364.121C122.091 366.661 139.161 365.511 140.741 350.121C141.671 341.221 134.351 339.021 125.471 339.021Z" fill="white"/>
<path d="M208.401 286.491C202.531 280.601 187.601 287.361 176.401 300.001C171.401 305.621 166.341 316.771 162.511 326.491C158.681 336.211 156.121 344.431 156.121 344.431C156.121 344.431 184.021 329.501 195.121 319.301C207.221 308.201 213.811 293.551 209.001 287.191C208.82 286.942 208.62 286.708 208.401 286.491Z" fill="url(#paint2_linear_29_12710)"/>
<path d="M180.591 304.32C175.251 310.08 173.261 317.7 172.531 323.04C177.701 322.36 185.151 320.39 190.851 314.9C201.961 304.22 204.961 293.9 204.381 290.59C201.151 290.01 191.021 293.09 180.591 304.32Z" fill="url(#paint3_linear_29_12710)"/>
<path style="mix-blend-mode:color-burn" opacity="0.4" d="M162.501 326.491C158.691 336.171 156.111 344.431 156.111 344.431C156.111 344.431 184.011 329.501 195.111 319.301C207.211 308.201 213.801 293.551 208.991 287.191C208.041 288.441 187.621 314.751 162.501 326.491Z" fill="url(#paint4_linear_29_12710)"/>
<path d="M208.201 278.154C207.056 277.05 205.597 276.328 204.024 276.088C202.452 275.848 200.844 276.102 199.421 276.814C198.234 277.352 197.174 278.136 196.311 279.114L190.421 285.714C188.98 287.255 188.171 289.281 188.155 291.391C188.138 293.501 188.915 295.54 190.331 297.104L198.011 304.944C199.542 306.406 201.582 307.215 203.7 307.198C205.817 307.182 207.844 306.341 209.351 304.854L215.901 298.794C216.879 297.896 217.656 296.802 218.181 295.584C218.885 294.114 219.123 292.465 218.864 290.857C218.605 289.249 217.861 287.758 216.731 286.584L208.201 278.154Z" fill="url(#paint5_linear_29_12710)"/>
<path d="M246.462 194.462C246.402 194.532 246.342 194.652 246.262 194.762L303.442 248.082C303.552 247.992 303.672 247.932 303.752 247.872C330.252 226.032 347.862 160.542 340.462 154.142C333.062 147.742 267.212 168.812 246.462 194.462Z" fill="url(#paint6_linear_29_12710)"/>
<path d="M183.421 272.44C182.031 274.16 185.301 279.44 190.421 285.65C193.211 289 196.571 292.65 200.081 296.16C203.141 299.21 206.331 302.16 209.341 304.8C216.271 310.8 222.341 314.89 224.031 313.52L303.691 247.85L246.441 194.48L183.421 272.44Z" fill="url(#paint7_linear_29_12710)"/>
<path d="M191.621 262.3C190.061 264.23 193.711 270.05 199.421 276.79C202.241 280.13 205.571 283.69 209.041 287.14C212.041 290.14 215.171 293.01 218.161 295.58C225.731 302.09 232.501 306.58 234.371 305.03L303.731 247.85L246.481 194.48L191.621 262.3Z" fill="url(#paint8_linear_29_12710)"/>
<path d="M219.561 234.763C218.673 235.895 218.236 237.317 218.336 238.752C218.436 240.187 219.065 241.535 220.101 242.533C220.578 243.034 221.154 243.431 221.793 243.697C222.431 243.964 223.118 244.096 223.81 244.084C224.501 244.071 225.183 243.916 225.812 243.626C226.44 243.337 227.002 242.921 227.461 242.403C228.406 241.273 228.885 239.825 228.802 238.354C228.718 236.883 228.078 235.499 227.011 234.483C226.523 233.976 225.933 233.579 225.28 233.316C224.627 233.053 223.927 232.93 223.223 232.957C222.52 232.983 221.831 233.158 221.199 233.469C220.568 233.78 220.01 234.221 219.561 234.763Z" fill="#ABABAB"/>
<path d="M254.532 268.621C254.009 269.095 253.593 269.674 253.31 270.321C253.027 270.967 252.884 271.666 252.891 272.372C252.897 273.078 253.053 273.774 253.348 274.415C253.643 275.056 254.07 275.627 254.602 276.091C255.669 277.143 257.081 277.772 258.577 277.86C260.072 277.948 261.549 277.49 262.732 276.571C263.281 276.102 263.721 275.519 264.024 274.863C264.326 274.207 264.482 273.493 264.482 272.771C264.482 272.049 264.326 271.335 264.024 270.679C263.721 270.023 263.281 269.441 262.732 268.971C261.648 267.913 260.212 267.293 258.699 267.228C257.186 267.164 255.702 267.66 254.532 268.621Z" fill="#ABABAB"/>
<path d="M243.242 206.253C242.15 207.513 241.57 209.136 241.616 210.802C241.662 212.468 242.332 214.057 243.492 215.253C244.096 215.791 244.802 216.201 245.569 216.458C246.335 216.716 247.146 216.816 247.952 216.753C248.758 216.689 249.543 216.463 250.259 216.089C250.976 215.714 251.61 215.199 252.122 214.573C253.287 213.313 253.923 211.654 253.899 209.937C253.875 208.221 253.192 206.58 251.992 205.353C251.371 204.809 250.645 204.398 249.859 204.147C249.072 203.896 248.242 203.81 247.421 203.895C246.599 203.979 245.804 204.232 245.085 204.638C244.366 205.044 243.739 205.594 243.242 206.253Z" fill="#ABABAB"/>
<path d="M282.612 243.273C281.978 243.793 281.461 244.441 281.096 245.175C280.73 245.909 280.525 246.712 280.493 247.531C280.461 248.351 280.603 249.168 280.909 249.928C281.216 250.688 281.68 251.375 282.272 251.943C283.61 253.091 285.314 253.721 287.077 253.721C288.839 253.721 290.544 253.091 291.882 251.943C292.543 251.432 293.086 250.785 293.474 250.045C293.862 249.305 294.086 248.49 294.131 247.656C294.176 246.821 294.04 245.987 293.733 245.21C293.426 244.433 292.955 243.731 292.352 243.153C290.993 241.981 289.253 241.346 287.459 241.368C285.665 241.39 283.941 242.067 282.612 243.273Z" fill="#ABABAB"/>
<path d="M198.03 260.68C196.52 262.5 196.86 265.48 198.77 267.39C200.68 269.3 203.49 269.39 205.05 267.67C206.61 265.95 206.35 262.81 204.37 260.86C202.39 258.91 199.56 258.84 198.03 260.68Z" fill="#ABABAB"/>
<path d="M229.092 291.591C227.312 293.201 227.492 296.071 229.462 298.041C231.432 300.011 234.522 300.381 236.362 298.831C238.202 297.281 238.112 294.311 236.062 292.281C234.012 290.251 230.892 289.961 229.092 291.591Z" fill="#ABABAB"/>
<path d="M208.95 239.882L198.35 242.452L170.68 249.152C170.068 249.335 169.527 249.702 169.13 250.202L152.7 278.652C152.43 279.132 152.58 279.282 153.05 278.992L171.05 268.072C171.549 267.7 172.172 267.535 172.79 267.612L174.42 267.912L184.42 269.772C184.717 269.811 185.019 269.776 185.299 269.672C185.58 269.567 185.831 269.396 186.03 269.172L209.28 240.432C209.63 240.002 209.48 239.762 208.95 239.882Z" fill="url(#paint9_linear_29_12710)"/>
<path d="M228.852 322.99C228.952 323.53 229.122 324.39 229.222 324.9C229.3 325.517 229.185 326.142 228.892 326.69L217.642 345.69C217.362 346.16 217.522 346.32 217.992 346.05L247.532 328.91C248.056 328.562 248.436 328.037 248.602 327.43L255.052 297.15C255.172 296.61 255.352 295.73 255.472 295.15L257.212 286.97C257.332 286.43 257.072 286.28 256.652 286.63L227.352 310.81C227.134 311.015 226.968 311.269 226.867 311.55C226.766 311.832 226.734 312.134 226.772 312.43L228.852 322.99Z" fill="url(#paint10_linear_29_12710)"/>
<path d="M266.981 228.571C265.505 227.21 263.773 226.155 261.885 225.467C259.998 224.78 257.993 224.474 255.987 224.567C253.981 224.66 252.013 225.15 250.198 226.009C248.382 226.868 246.755 228.079 245.411 229.571C243.747 231.389 242.562 233.592 241.961 235.981C241.327 238.442 241.359 241.027 242.053 243.471C242.747 245.915 244.078 248.131 245.911 249.891C248.735 252.538 252.461 254.01 256.331 254.01C260.201 254.01 263.927 252.538 266.751 249.891C269.491 247.413 271.182 243.982 271.48 240.299C271.777 236.615 270.658 232.958 268.351 230.071C267.941 229.531 267.482 229.029 266.981 228.571Z" fill="#85E3FF"/>
<path style="mix-blend-mode:color-burn" opacity="0.4" d="M241.961 235.98C241.327 238.441 241.359 241.026 242.053 243.47C242.747 245.914 244.078 248.13 245.911 249.89C248.735 252.537 252.461 254.009 256.331 254.009C260.201 254.009 263.927 252.537 266.751 249.89C269.491 247.411 271.182 243.981 271.48 240.297C271.777 236.614 270.658 232.957 268.351 230.07C265.121 238 256.981 251.8 241.961 235.98Z" fill="url(#paint11_linear_29_12710)"/>
<path d="M242.77 227.074C239.607 230.564 237.919 235.142 238.059 239.85C238.199 244.557 240.156 249.028 243.52 252.324C247.028 255.612 251.649 257.453 256.458 257.479C261.266 257.505 265.906 255.714 269.45 252.464C271.338 250.791 272.857 248.744 273.911 246.453C274.965 244.161 275.53 241.675 275.57 239.153C275.611 236.632 275.126 234.129 274.146 231.805C273.166 229.481 271.714 227.386 269.88 225.654C268.019 223.943 265.835 222.62 263.456 221.764C261.077 220.907 258.551 220.534 256.027 220.667C253.502 220.799 251.029 221.434 248.752 222.534C246.476 223.634 244.442 225.178 242.77 227.074ZM264.05 247.324C261.941 249.34 259.141 250.473 256.223 250.49C253.305 250.507 250.492 249.406 248.36 247.414C246.305 245.413 245.121 242.684 245.063 239.817C245.005 236.95 246.078 234.176 248.05 232.094C250.1 229.874 252.947 228.559 255.966 228.437C258.984 228.315 261.928 229.397 264.15 231.444C265.229 232.469 266.086 233.704 266.668 235.074C267.251 236.443 267.546 237.917 267.537 239.405C267.528 240.894 267.213 242.364 266.614 243.726C266.014 245.088 265.141 246.312 264.05 247.324Z" fill="url(#paint12_linear_29_12710)"/>
<path d="M235.141 260.783C229.821 255.583 221.801 255.473 217.391 260.323C216.074 261.779 215.179 263.566 214.801 265.493C214.409 267.65 214.559 269.871 215.236 271.957C215.913 274.042 217.097 275.927 218.681 277.443C223.611 282.343 231.291 282.943 235.951 278.603C240.401 274.453 240.521 267.303 236.321 262.103C235.966 261.63 235.572 261.188 235.141 260.783Z" fill="#85E3FF"/>
<path style="mix-blend-mode:color-burn" opacity="0.4" d="M214.801 265.492C214.409 267.649 214.559 269.87 215.236 271.955C215.913 274.041 217.097 275.926 218.681 277.442C223.611 282.342 231.291 282.942 235.951 278.602C240.401 274.452 240.521 267.302 236.321 262.102C234.061 268.542 227.961 279.672 214.801 265.492Z" fill="url(#paint13_linear_29_12710)"/>
<path d="M215.09 258.074C209.88 263.914 210.73 273.324 216.79 279.364C222.85 285.404 232.44 286.254 238.29 280.914C244.45 275.294 244.15 265.104 237.38 258.524C230.61 251.944 220.57 251.944 215.09 258.074ZM233.6 276.294C230.14 279.594 224.35 279.184 220.6 275.494C216.85 271.804 216.43 266.074 219.66 262.594C222.89 259.114 228.98 259.144 232.93 263.004C236.88 266.864 237.17 272.894 233.6 276.294Z" fill="url(#paint14_linear_29_12710)"/>
<path style="mix-blend-mode:color-burn" opacity="0.4" d="M286.352 231.641C260.542 255.641 205.992 307.941 209.352 304.851L209.402 304.801C216.332 310.801 222.402 314.891 224.092 313.521L303.462 248.081C303.572 247.991 303.692 247.931 303.772 247.871C330.272 226.031 347.882 160.541 340.482 154.141C340.462 154.151 317.882 202.241 286.352 231.641Z" fill="url(#paint15_linear_29_12710)"/>
<path style="mix-blend-mode:color-burn" opacity="0.4" d="M229.042 323.971L255.262 296.191L257.422 286.051L226.602 311.451L229.042 323.971Z" fill="url(#paint16_linear_29_12710)"/>
<path style="mix-blend-mode:color-burn" opacity="0.4" d="M208.951 239.882L198.351 242.452L174.451 267.912L184.451 269.772C184.748 269.811 185.05 269.776 185.331 269.672C185.611 269.567 185.862 269.396 186.061 269.172L209.311 240.432C209.631 240.002 209.481 239.762 208.951 239.882Z" fill="url(#paint17_linear_29_12710)"/>
<path style="mix-blend-mode:screen" opacity="0.9" d="M319.061 158.543C319.061 158.543 269.611 170.773 253.931 195.363C252.921 195.953 333.281 165.153 319.061 158.543Z" fill="url(#paint18_linear_29_12710)"/>
<defs>
<linearGradient id="paint0_linear_29_12710" x1="221.981" y1="251.233" x2="92.9205" y2="517.973" gradientUnits="userSpaceOnUse">
<stop offset="0.08" stop-color="white"/>
<stop offset="1" stop-color="#E8E8E8"/>
</linearGradient>
<linearGradient id="paint1_linear_29_12710" x1="85.2605" y1="464.35" x2="220.361" y2="223.27" gradientUnits="userSpaceOnUse">
<stop offset="0.08" stop-color="#595959"/>
<stop offset="1" stop-color="white"/>
</linearGradient>
<linearGradient id="paint2_linear_29_12710" x1="163.001" y1="333.511" x2="207.001" y2="287.511" gradientUnits="userSpaceOnUse">
<stop offset="0.07" stop-color="#FCE6AE"/>
<stop offset="1" stop-color="#FCE428"/>
</linearGradient>
<linearGradient id="paint3_linear_29_12710" x1="199.171" y1="298.31" x2="161.171" y2="329.31" gradientUnits="userSpaceOnUse">
<stop stop-color="#FA7E37"/>
<stop offset="1" stop-color="#FAC26E"/>
</linearGradient>
<linearGradient id="paint4_linear_29_12710" x1="198.781" y1="301.721" x2="159.111" y2="344.051" gradientUnits="userSpaceOnUse">
<stop stop-color="white"/>
<stop offset="0.17" stop-color="#E1E1E1"/>
<stop offset="0.53" stop-color="#959595"/>
<stop offset="1" stop-color="#292929"/>
</linearGradient>
<linearGradient id="paint5_linear_29_12710" x1="205.371" y1="289.674" x2="193.111" y2="301.934" gradientUnits="userSpaceOnUse">
<stop stop-color="#594642"/>
<stop offset="1" stop-color="#262120"/>
</linearGradient>
<linearGradient id="paint6_linear_29_12710" x1="19924.6" y1="18843.4" x2="27549.3" y2="11154.6" gradientUnits="userSpaceOnUse">
<stop stop-color="#FA7E37"/>
<stop offset="1" stop-color="#FAC26E"/>
</linearGradient>
<linearGradient id="paint7_linear_29_12710" x1="19161.7" y1="29350.3" x2="17789.8" y2="30738.2" gradientUnits="userSpaceOnUse">
<stop stop-color="#594642"/>
<stop offset="1" stop-color="#262120"/>
</linearGradient>
<linearGradient id="paint8_linear_29_12710" x1="277.561" y1="219.13" x2="196.231" y2="286.46" gradientUnits="userSpaceOnUse">
<stop stop-color="white"/>
<stop offset="0.96" stop-color="#E0E0E0"/>
<stop offset="1"/>
</linearGradient>
<linearGradient id="paint9_linear_29_12710" x1="6640.07" y1="8709.64" x2="8521.56" y2="9262.55" gradientUnits="userSpaceOnUse">
<stop stop-color="#FA7E37"/>
<stop offset="1" stop-color="#FAC26E"/>
</linearGradient>
<linearGradient id="paint10_linear_29_12710" x1="7650.8" y1="17809.9" x2="7008.51" y2="15271.9" gradientUnits="userSpaceOnUse">
<stop stop-color="#FA7E37"/>
<stop offset="1" stop-color="#FAC26E"/>
</linearGradient>
<linearGradient id="paint11_linear_29_12710" x1="6836.08" y1="4833.5" x2="6105.82" y2="5313.66" gradientUnits="userSpaceOnUse">
<stop stop-color="white"/>
<stop offset="0.17" stop-color="#E1E1E1"/>
<stop offset="0.53" stop-color="#959595"/>
<stop offset="1" stop-color="#292929"/>
</linearGradient>
<linearGradient id="paint12_linear_29_12710" x1="8354.38" y1="7038.02" x2="7368.37" y2="8042.31" gradientUnits="userSpaceOnUse">
<stop stop-color="#594642"/>
<stop offset="1" stop-color="#262120"/>
</linearGradient>
<linearGradient id="paint13_linear_29_12710" x1="4809.53" y1="4640.68" x2="4320.47" y2="4909.58" gradientUnits="userSpaceOnUse">
<stop stop-color="white"/>
<stop offset="0.17" stop-color="#E1E1E1"/>
<stop offset="0.53" stop-color="#959595"/>
<stop offset="1" stop-color="#292929"/>
</linearGradient>
<linearGradient id="paint14_linear_29_12710" x1="5936.29" y1="6970.22" x2="5220.44" y2="7688.66" gradientUnits="userSpaceOnUse">
<stop stop-color="#594642"/>
<stop offset="1" stop-color="#262120"/>
</linearGradient>
<linearGradient id="paint15_linear_29_12710" x1="42159.4" y1="17608.2" x2="20627.3" y2="37144" gradientUnits="userSpaceOnUse">
<stop stop-color="white"/>
<stop offset="0.17" stop-color="#E1E1E1"/>
<stop offset="0.53" stop-color="#959595"/>
<stop offset="1" stop-color="#292929"/>
</linearGradient>
<linearGradient id="paint16_linear_29_12710" x1="5621.95" y1="5515.98" x2="4441.4" y2="6495.48" gradientUnits="userSpaceOnUse">
<stop stop-color="white"/>
<stop offset="0.17" stop-color="#E1E1E1"/>
<stop offset="0.53" stop-color="#959595"/>
<stop offset="1" stop-color="#292929"/>
</linearGradient>
<linearGradient id="paint17_linear_29_12710" x1="5646.74" y1="6235.16" x2="4523.56" y2="7323.44" gradientUnits="userSpaceOnUse">
<stop stop-color="white"/>
<stop offset="0.17" stop-color="#E1E1E1"/>
<stop offset="0.53" stop-color="#959595"/>
<stop offset="1" stop-color="#292929"/>
</linearGradient>
<linearGradient id="paint18_linear_29_12710" x1="344.561" y1="137.553" x2="270.901" y2="188.223" gradientUnits="userSpaceOnUse">
<stop stop-color="white"/>
<stop offset="0.14" stop-color="#E1E1E1"/>
<stop offset="0.45" stop-color="#949494"/>
<stop offset="0.9" stop-color="#1B1B1B"/>
<stop offset="1"/>
</linearGradient>
</defs>
</svg>
