<svg width="51" height="51" viewBox="0 0 51 51" fill="none" xmlns="http://www.w3.org/2000/svg">
<g clip-path="url(#clip0_133_16447)">
<path d="M27.4899 18.8047H36.8867L35.8426 22.981H27.4899V41.7745H23.3136V22.981H14.9609V18.8047H23.3136V14.8956C23.3136 11.1724 23.702 9.82137 24.4287 8.45988C25.1408 7.1147 26.2408 6.01466 27.586 5.30258C28.9475 4.5759 30.2985 4.1875 34.0217 4.1875C35.1117 4.1875 36.0681 4.29191 36.8867 4.50072V8.36383H34.0217C31.257 8.36383 30.4155 8.52671 29.5572 8.9861C28.9224 9.32438 28.4505 9.79631 28.1122 10.4311C27.6528 11.2893 27.4899 12.1309 27.4899 14.8956V18.8047Z" fill="#FF4400"/>
</g>
<defs>
<clipPath id="clip0_133_16447">
<rect width="50.116" height="50.116" fill="white" transform="translate(0.34375 0.0117188)"/>
</clipPath>
</defs>
</svg>
