<svg width="274" height="131" viewBox="0 0 274 131" fill="none" xmlns="http://www.w3.org/2000/svg">
<path fill-rule="evenodd" clip-rule="evenodd" d="M22.4724 43.3351C5.50155 53.9575 -4.11568 70.8391 14.5185 85.5941C30.5994 98.3311 59.4187 104.406 82.9179 108.306C106.509 112.223 130.399 113.785 154.002 114.037C193.919 114.468 267.911 111.777 267.225 80.1585C266.831 62.0373 242.617 42.1005 217.538 31.3185C187.319 18.3269 150.798 16.5146 117.915 18.3069C84.5304 20.1247 52.511 26.5708 30.9297 41.1077C13.4666 52.8712 -0.870355 73.29 19.3463 89.7057C37.2071 104.209 72.247 108.072 97.925 108.764C129.034 109.603 160.109 109.419 189.915 106.104C217.259 103.061 246.364 96.8812 260.572 82.3348C270.665 71.9968 270.309 59.643 253.68 49.6629C236.641 39.4343 211.228 34.5856 189.586 31.0588C165.793 27.1819 142.429 25.2785 118.663 25.1032C112.985 25.0629 107.302 25.0172 101.621 24.9497C99.0866 24.921 99.9145 27.3002 102.425 27.3276C118.246 27.5119 133.934 27.2385 149.885 28.5751C161.088 29.516 172.294 30.8436 183.432 32.4797C206.56 35.8793 233.015 40.8182 251.47 51.4385C273.643 64.2022 261.367 81.2144 244.252 90.0431C220.888 102.099 185.359 105.016 153.935 106.304C124.124 107.527 90.9172 108.194 60.6079 102.783C45.922 100.161 30.9691 95.4196 21.3544 87.6114C10.2479 78.5935 12.5826 67.6472 17.9041 58.8927C30.9582 37.4365 65.0849 26.0852 101.686 22.0587C136.9 18.1886 177.614 18.6677 211.776 31.6591C228.799 38.1305 242.079 47.6215 251.691 58.0892C259.341 66.4246 264.882 75.7151 262.769 84.6076C259.157 99.8051 231.328 105.921 209.351 108.836C183.677 112.238 155.769 112.338 128.61 110.885C103.269 109.528 77.2153 106.054 52.9313 99.5486C39.3846 95.9168 25.8701 90.9177 16.5912 83.5709C6.1978 75.3384 6.43172 65.3828 11.9277 57.2208C19.2743 46.314 35.6938 38.426 52.1072 32.7586C68.3539 27.1472 88.3702 23.1202 108.615 24.3279C111.139 24.4788 111.414 22.1465 108.866 21.9943C75.6452 20.0113 43.3124 30.2893 22.4724 43.3351Z" fill="#FF4400"/>
</svg>
