<svg width="51" height="51" viewBox="0 0 51 51" fill="none" xmlns="http://www.w3.org/2000/svg">
<g clip-path="url(#clip0_133_16441)">
<path d="M35.5482 17.2917C36.7937 17.2917 37.8034 16.282 37.8034 15.0365C37.8034 13.7909 36.7937 12.7812 35.5482 12.7812C34.3027 12.7812 33.293 13.7909 33.293 15.0365C33.293 16.282 34.3027 17.2917 35.5482 17.2917Z" fill="#FF4400"/>
<path d="M25.516 15.418C23.6073 15.418 21.7414 15.984 20.1543 17.0444C18.5673 18.1049 17.3303 19.6121 16.5999 21.3755C15.8694 23.139 15.6783 25.0794 16.0507 26.9515C16.4231 28.8236 17.3422 30.5432 18.6919 31.8929C20.0416 33.2425 21.7612 34.1617 23.6332 34.5341C25.5053 34.9064 27.4457 34.7153 29.2092 33.9849C30.9726 33.2544 32.4799 32.0175 33.5403 30.4304C34.6008 28.8434 35.1668 26.9775 35.1668 25.0687C35.1668 22.5092 34.15 20.0545 32.3401 18.2446C30.5303 16.4347 28.0755 15.418 25.516 15.418ZM25.516 31.3332C24.277 31.3332 23.0658 30.9658 22.0356 30.2775C21.0054 29.5891 20.2025 28.6107 19.7284 27.4661C19.2542 26.3214 19.1302 25.0618 19.3719 23.8466C19.6136 22.6314 20.2102 21.5152 21.0863 20.6391C21.9624 19.763 23.0787 19.1663 24.2939 18.9246C25.5091 18.6829 26.7686 18.807 27.9133 19.2811C29.058 19.7552 30.0364 20.5582 30.7247 21.5884C31.4131 22.6186 31.7805 23.8297 31.7805 25.0687C31.7805 26.7302 31.1205 28.3236 29.9457 29.4984C28.7708 30.6732 27.1774 31.3332 25.516 31.3332Z" fill="#FF4400"/>
<path d="M25.5161 9.66362C30.5342 9.66362 31.1287 9.68272 33.1103 9.77325C34.302 9.78743 35.4825 10.0063 36.6001 10.4204C37.4105 10.7331 38.1466 11.212 38.7608 11.8263C39.3751 12.4405 39.854 13.1766 40.1668 13.9871C40.5808 15.1047 40.7997 16.2851 40.8139 17.4769C40.9042 19.4585 40.9235 20.053 40.9235 25.071C40.9235 30.089 40.9044 30.6835 40.8139 32.6651C40.7997 33.8569 40.5808 35.0373 40.1668 36.1549C39.854 36.9654 39.3751 37.7014 38.7608 38.3157C38.1466 38.93 37.4105 39.4089 36.6001 39.7216C35.4825 40.1356 34.302 40.3545 33.1103 40.3687C31.1288 40.4591 30.5346 40.4784 25.5161 40.4784C20.4977 40.4784 19.9035 40.4592 17.922 40.3687C16.7303 40.3545 15.5498 40.1356 14.4322 39.7216C13.6217 39.4089 12.8857 38.93 12.2714 38.3157C11.6572 37.7014 11.1783 36.9654 10.8655 36.1549C10.4515 35.0373 10.2326 33.8569 10.2184 32.6651C10.128 30.6835 10.1088 30.089 10.1088 25.071C10.1088 20.053 10.1279 19.4585 10.2184 17.4769C10.2326 16.2851 10.4515 15.1047 10.8655 13.9871C11.1782 13.1766 11.6571 12.4405 12.2714 11.8262C12.8857 11.2119 13.6217 10.733 14.4322 10.4202C15.5498 10.0062 16.7303 9.78728 17.922 9.77309C19.9036 9.68272 20.4981 9.66346 25.5161 9.66346V9.66362ZM25.5161 6.27734C20.4121 6.27734 19.7721 6.29896 17.7676 6.39042C16.2087 6.42171 14.6665 6.71709 13.2064 7.264C11.9578 7.74686 10.8238 8.48526 9.8772 9.43189C8.93058 10.3785 8.19217 11.5125 7.70931 12.7611C7.16232 14.2214 6.86694 15.764 6.83573 17.3231C6.74427 19.3268 6.72266 19.9668 6.72266 25.0708C6.72266 30.1748 6.74427 30.8149 6.83573 32.8194C6.86696 34.3785 7.16234 35.921 7.70931 37.3813C8.19217 38.63 8.93058 39.7639 9.8772 40.7105C10.8238 41.6572 11.9578 42.3956 13.2064 42.8784C14.6667 43.4254 16.2093 43.7208 17.7684 43.752C19.7721 43.8427 20.4121 43.8643 25.5161 43.8643C30.6201 43.8643 31.2602 43.8427 33.2647 43.7512C34.8238 43.72 36.3663 43.4246 37.8267 42.8777C39.0753 42.3948 40.2092 41.6564 41.1559 40.7098C42.1025 39.7631 42.8409 38.6292 43.3237 37.3806C43.8707 35.9202 44.1661 34.3777 44.1973 32.8186C44.288 30.8149 44.3096 30.1748 44.3096 25.0708C44.3096 19.9668 44.288 19.3268 44.1965 17.3223C44.1652 15.7634 43.8699 14.2212 43.323 12.7611C42.84 11.5126 42.1016 10.3788 41.1549 9.43233C40.2083 8.48584 39.0744 7.74756 37.8259 7.26478C36.3655 6.71781 34.823 6.42243 33.2639 6.3912C31.2602 6.29896 30.6201 6.27734 25.5161 6.27734Z" fill="#FF4400"/>
</g>
<defs>
<clipPath id="clip0_133_16441">
<rect width="50.116" height="50.116" fill="white" transform="translate(0.458984 0.0117188)"/>
</clipPath>
</defs>
</svg>
