<svg width="51" height="51" viewBox="0 0 51 51" fill="none" xmlns="http://www.w3.org/2000/svg">
<path d="M17.2826 39.6919H11.0176V18.8086H17.2826V39.6919ZM40.2542 39.6919H33.9892V28.5361C33.9892 25.6291 32.9534 24.1819 30.9006 24.1819C29.2738 24.1819 28.2422 24.9921 27.7242 26.6148V39.6919H21.4592C21.4592 39.6919 21.5428 20.8969 21.4592 18.8086H26.4044L26.7866 22.9853H26.9161C28.2004 20.8969 30.2532 19.481 33.0683 19.481C35.2088 19.481 36.9401 20.0762 38.262 21.5715C39.5922 23.0688 40.2542 25.0778 40.2542 27.8991V39.6919Z" fill="#FF4400"/>
<path d="M14.151 16.7181C15.9387 16.7181 17.3879 15.3157 17.3879 13.5856C17.3879 11.8556 15.9387 10.4531 14.151 10.4531C12.3633 10.4531 10.9141 11.8556 10.9141 13.5856C10.9141 15.3157 12.3633 16.7181 14.151 16.7181Z" fill="#FF4400"/>
</svg>
