<svg width="284" height="277" viewBox="0 0 284 277" fill="none" xmlns="http://www.w3.org/2000/svg">
<path d="M207.189 87.0676C234.994 122.352 252.825 160.049 259.193 192.457C265.567 224.894 260.439 251.878 242.565 265.962C224.691 280.047 197.257 278.724 167.209 264.942C137.189 251.172 104.706 225.021 76.9014 189.737C49.0969 154.453 31.2661 116.755 24.8977 84.3476C18.5235 51.9104 23.6523 24.927 41.5259 10.8423C59.3994 -3.24234 86.834 -1.91954 116.882 11.8626C146.902 25.6324 179.385 51.7836 207.189 87.0676Z" stroke="#DADADA"/>
<path d="M142.2 256.5C142.2 256.5 236.4 209.4 236.4 138.75V56.325L142.2 21L48 56.325V138.75C48 209.4 142.2 256.5 142.2 256.5Z" fill="#FF4400" stroke="white" stroke-width="6" stroke-linecap="round" stroke-linejoin="round"/>
<path fill-rule="evenodd" clip-rule="evenodd" d="M142.771 36.223L142.771 36.2227L60.75 66.9804V138.748C60.75 200.264 142.771 241.274 142.771 241.274C142.771 241.274 142.771 241.274 142.771 241.274V36.223Z" fill="#F7A3A0"/>
<path d="M127.043 181.807L83.207 130.624L123.765 152.629C136.547 117.422 181.803 94.7478 201.195 95.2262C166.126 95.2262 137.148 152.946 127.043 181.807Z" fill="#2626BC"/>
<path d="M94.0934 71.345C130.584 45.2519 168.999 29.2353 201.575 24.3984C234.21 19.5526 260.675 25.9524 273.745 44.2311C286.815 62.5099 284.314 89.6221 269.176 118.937C260.132 136.449 246.624 154.646 229.412 172.028C229.056 172.872 228.689 173.711 228.311 174.545C275.746 127.501 296.259 73.9978 274.558 43.6495C247.754 6.16434 166.697 18.1999 93.5118 70.5316C20.3265 122.863 -17.2729 195.674 9.53116 233.159C27.8415 258.766 71.469 261.264 120.61 243.594C120.269 243.366 119.925 243.135 119.579 242.901C106.709 247.483 94.2341 250.67 82.5147 252.411C49.8795 257.256 23.415 250.857 10.3446 232.578C-2.72579 214.299 -0.224206 187.187 14.914 157.872C30.0248 128.61 57.6025 97.4382 94.0934 71.345Z" fill="#DADADA"/>
</svg>
