<svg width="167" height="215" viewBox="0 0 167 215" fill="none" xmlns="http://www.w3.org/2000/svg">
<circle cx="4.94815" cy="5.44424" r="4.94815" fill="#F4F7FA"/>
<ellipse cx="4.94815" cy="20.9078" rx="4.94815" ry="4.32963" fill="#F4F7FA"/>
<circle cx="4.94815" cy="36.37" r="4.94815" fill="#F4F7FA"/>
<circle cx="4.94815" cy="52.4521" r="4.94815" fill="#F4F7FA"/>
<circle cx="4.94815" cy="68.5341" r="4.94815" fill="#F4F7FA"/>
<ellipse cx="4.94815" cy="83.9976" rx="4.94815" ry="4.32963" fill="#F4F7FA"/>
<circle cx="4.94815" cy="99.4599" r="4.94815" fill="#F4F7FA"/>
<circle cx="4.94815" cy="115.542" r="4.94815" fill="#F4F7FA"/>
<ellipse cx="4.94815" cy="131.005" rx="4.94815" ry="4.32963" fill="#F4F7FA"/>
<circle cx="4.94815" cy="146.468" r="4.94815" fill="#F4F7FA"/>
<circle cx="4.94815" cy="162.55" r="4.94815" fill="#F4F7FA"/>
<circle cx="4.94815" cy="178.628" r="4.94815" fill="#F4F7FA"/>
<ellipse cx="4.94815" cy="194.091" rx="4.94815" ry="4.32963" fill="#F4F7FA"/>
<circle cx="4.94815" cy="209.554" r="4.94815" fill="#F4F7FA"/>
<ellipse cx="20.4117" cy="5.44424" rx="4.32963" ry="4.94815" fill="#F4F7FA"/>
<circle cx="20.4117" cy="20.9078" r="4.32963" fill="#F4F7FA"/>
<ellipse cx="20.4117" cy="36.37" rx="4.32963" ry="4.94815" fill="#F4F7FA"/>
<ellipse cx="20.4117" cy="52.4521" rx="4.32963" ry="4.94815" fill="#F4F7FA"/>
<ellipse cx="20.4117" cy="68.5341" rx="4.32963" ry="4.94815" fill="#F4F7FA"/>
<circle cx="20.4117" cy="83.9976" r="4.32963" fill="#F4F7FA"/>
<ellipse cx="20.4117" cy="99.4599" rx="4.32963" ry="4.94815" fill="#F4F7FA"/>
<ellipse cx="20.4117" cy="115.542" rx="4.32963" ry="4.94815" fill="#F4F7FA"/>
<circle cx="20.4117" cy="131.005" r="4.32963" fill="#F4F7FA"/>
<ellipse cx="20.4117" cy="146.468" rx="4.32963" ry="4.94815" fill="#F4F7FA"/>
<ellipse cx="20.4117" cy="162.55" rx="4.32963" ry="4.94815" fill="#F4F7FA"/>
<ellipse cx="20.4117" cy="178.628" rx="4.32963" ry="4.94815" fill="#F4F7FA"/>
<circle cx="20.4117" cy="194.091" r="4.32963" fill="#F4F7FA"/>
<ellipse cx="20.4117" cy="209.554" rx="4.32963" ry="4.94815" fill="#F4F7FA"/>
<circle cx="35.8739" cy="5.44424" r="4.94815" fill="#F4F7FA"/>
<ellipse cx="35.8739" cy="20.9078" rx="4.94815" ry="4.32963" fill="#F4F7FA"/>
<circle cx="35.8739" cy="36.37" r="4.94815" fill="#F4F7FA"/>
<circle cx="35.8739" cy="52.4521" r="4.94815" fill="#F4F7FA"/>
<circle cx="35.8739" cy="68.5341" r="4.94815" fill="#F4F7FA"/>
<ellipse cx="35.8739" cy="83.9976" rx="4.94815" ry="4.32963" fill="#F4F7FA"/>
<circle cx="35.8739" cy="99.4599" r="4.94815" fill="#F4F7FA"/>
<circle cx="35.8739" cy="115.542" r="4.94815" fill="#F4F7FA"/>
<ellipse cx="35.8739" cy="131.005" rx="4.94815" ry="4.32963" fill="#F4F7FA"/>
<circle cx="35.8739" cy="146.468" r="4.94815" fill="#F4F7FA"/>
<circle cx="35.8739" cy="162.55" r="4.94815" fill="#F4F7FA"/>
<circle cx="35.8739" cy="178.628" r="4.94815" fill="#F4F7FA"/>
<ellipse cx="35.8739" cy="194.091" rx="4.94815" ry="4.32963" fill="#F4F7FA"/>
<circle cx="35.8739" cy="209.554" r="4.94815" fill="#F4F7FA"/>
<circle cx="51.956" cy="5.44424" r="4.94815" fill="#F4F7FA"/>
<ellipse cx="51.956" cy="20.9078" rx="4.94815" ry="4.32963" fill="#F4F7FA"/>
<circle cx="51.956" cy="36.37" r="4.94815" fill="#F4F7FA"/>
<circle cx="51.956" cy="52.4521" r="4.94815" fill="#F4F7FA"/>
<circle cx="51.956" cy="68.5341" r="4.94815" fill="#F4F7FA"/>
<ellipse cx="51.956" cy="83.9976" rx="4.94815" ry="4.32963" fill="#F4F7FA"/>
<circle cx="51.956" cy="99.4599" r="4.94815" fill="#F4F7FA"/>
<circle cx="51.956" cy="115.542" r="4.94815" fill="#F4F7FA"/>
<ellipse cx="51.956" cy="131.005" rx="4.94815" ry="4.32963" fill="#F4F7FA"/>
<circle cx="51.956" cy="146.468" r="4.94815" fill="#F4F7FA"/>
<circle cx="51.956" cy="162.55" r="4.94815" fill="#F4F7FA"/>
<circle cx="51.956" cy="178.628" r="4.94815" fill="#F4F7FA"/>
<ellipse cx="51.956" cy="194.091" rx="4.94815" ry="4.32963" fill="#F4F7FA"/>
<circle cx="51.956" cy="209.554" r="4.94815" fill="#F4F7FA"/>
<circle cx="68.038" cy="5.44424" r="4.94815" fill="#F4F7FA"/>
<ellipse cx="68.038" cy="20.9078" rx="4.94815" ry="4.32963" fill="#F4F7FA"/>
<circle cx="68.038" cy="36.37" r="4.94815" fill="#F4F7FA"/>
<circle cx="68.038" cy="52.4521" r="4.94815" fill="#F4F7FA"/>
<circle cx="68.038" cy="68.5341" r="4.94815" fill="#F4F7FA"/>
<ellipse cx="68.038" cy="83.9976" rx="4.94815" ry="4.32963" fill="#F4F7FA"/>
<circle cx="68.038" cy="99.4599" r="4.94815" fill="#F4F7FA"/>
<circle cx="68.038" cy="115.542" r="4.94815" fill="#F4F7FA"/>
<ellipse cx="68.038" cy="131.005" rx="4.94815" ry="4.32963" fill="#F4F7FA"/>
<circle cx="68.038" cy="146.468" r="4.94815" fill="#F4F7FA"/>
<circle cx="68.038" cy="162.55" r="4.94815" fill="#F4F7FA"/>
<circle cx="68.038" cy="178.628" r="4.94815" fill="#F4F7FA"/>
<ellipse cx="68.038" cy="194.091" rx="4.94815" ry="4.32963" fill="#F4F7FA"/>
<circle cx="68.038" cy="209.554" r="4.94815" fill="#F4F7FA"/>
<ellipse cx="83.4995" cy="5.44424" rx="4.32963" ry="4.94815" fill="#F4F7FA"/>
<circle cx="83.4995" cy="20.9078" r="4.32963" fill="#F4F7FA"/>
<ellipse cx="83.4995" cy="36.37" rx="4.32963" ry="4.94815" fill="#F4F7FA"/>
<ellipse cx="83.4995" cy="52.4521" rx="4.32963" ry="4.94815" fill="#F4F7FA"/>
<ellipse cx="83.4995" cy="68.5341" rx="4.32963" ry="4.94815" fill="#F4F7FA"/>
<circle cx="83.4995" cy="83.9976" r="4.32963" fill="#F4F7FA"/>
<ellipse cx="83.4995" cy="99.4599" rx="4.32963" ry="4.94815" fill="#F4F7FA"/>
<ellipse cx="83.4995" cy="115.542" rx="4.32963" ry="4.94815" fill="#F4F7FA"/>
<circle cx="83.4995" cy="131.005" r="4.32963" fill="#F4F7FA"/>
<ellipse cx="83.4995" cy="146.468" rx="4.32963" ry="4.94815" fill="#F4F7FA"/>
<ellipse cx="83.4995" cy="162.55" rx="4.32963" ry="4.94815" fill="#F4F7FA"/>
<ellipse cx="83.4995" cy="178.628" rx="4.32963" ry="4.94815" fill="#F4F7FA"/>
<circle cx="83.4995" cy="194.091" r="4.32963" fill="#F4F7FA"/>
<ellipse cx="83.4995" cy="209.554" rx="4.32963" ry="4.94815" fill="#F4F7FA"/>
<circle cx="98.9638" cy="5.44424" r="4.94815" fill="#F4F7FA"/>
<ellipse cx="98.9638" cy="20.9078" rx="4.94815" ry="4.32963" fill="#F4F7FA"/>
<circle cx="98.9638" cy="36.37" r="4.94815" fill="#F4F7FA"/>
<circle cx="98.9638" cy="52.4521" r="4.94815" fill="#F4F7FA"/>
<circle cx="98.9638" cy="68.5341" r="4.94815" fill="#F4F7FA"/>
<ellipse cx="98.9638" cy="83.9976" rx="4.94815" ry="4.32963" fill="#F4F7FA"/>
<circle cx="98.9638" cy="99.4599" r="4.94815" fill="#F4F7FA"/>
<circle cx="98.9638" cy="115.542" r="4.94815" fill="#F4F7FA"/>
<ellipse cx="98.9638" cy="131.005" rx="4.94815" ry="4.32963" fill="#F4F7FA"/>
<circle cx="98.9638" cy="146.468" r="4.94815" fill="#F4F7FA"/>
<circle cx="98.9638" cy="162.55" r="4.94815" fill="#F4F7FA"/>
<circle cx="98.9638" cy="178.628" r="4.94815" fill="#F4F7FA"/>
<ellipse cx="98.9638" cy="194.091" rx="4.94815" ry="4.32963" fill="#F4F7FA"/>
<circle cx="98.9638" cy="209.554" r="4.94815" fill="#F4F7FA"/>
<circle cx="115.044" cy="5.44424" r="4.94815" fill="#F4F7FA"/>
<ellipse cx="115.044" cy="20.9078" rx="4.94815" ry="4.32963" fill="#F4F7FA"/>
<circle cx="115.044" cy="36.37" r="4.94815" fill="#F4F7FA"/>
<circle cx="115.044" cy="52.4521" r="4.94815" fill="#F4F7FA"/>
<circle cx="115.044" cy="68.5341" r="4.94815" fill="#F4F7FA"/>
<ellipse cx="115.044" cy="83.9976" rx="4.94815" ry="4.32963" fill="#F4F7FA"/>
<circle cx="115.044" cy="99.4599" r="4.94815" fill="#F4F7FA"/>
<circle cx="115.044" cy="115.542" r="4.94815" fill="#F4F7FA"/>
<ellipse cx="115.044" cy="131.005" rx="4.94815" ry="4.32963" fill="#F4F7FA"/>
<circle cx="115.044" cy="146.468" r="4.94815" fill="#F4F7FA"/>
<circle cx="115.044" cy="162.55" r="4.94815" fill="#F4F7FA"/>
<circle cx="115.044" cy="178.628" r="4.94815" fill="#F4F7FA"/>
<ellipse cx="115.044" cy="194.091" rx="4.94815" ry="4.32963" fill="#F4F7FA"/>
<circle cx="115.044" cy="209.554" r="4.94815" fill="#F4F7FA"/>
<ellipse cx="130.507" cy="5.44424" rx="4.32963" ry="4.94815" fill="#F4F7FA"/>
<circle cx="130.507" cy="20.9078" r="4.32963" fill="#F4F7FA"/>
<ellipse cx="130.507" cy="36.37" rx="4.32963" ry="4.94815" fill="#F4F7FA"/>
<ellipse cx="130.507" cy="52.4521" rx="4.32963" ry="4.94815" fill="#F4F7FA"/>
<ellipse cx="130.507" cy="68.5341" rx="4.32963" ry="4.94815" fill="#F4F7FA"/>
<circle cx="130.507" cy="83.9976" r="4.32963" fill="#F4F7FA"/>
<ellipse cx="130.507" cy="99.4599" rx="4.32963" ry="4.94815" fill="#F4F7FA"/>
<ellipse cx="130.507" cy="115.542" rx="4.32963" ry="4.94815" fill="#F4F7FA"/>
<circle cx="130.507" cy="131.005" r="4.32963" fill="#F4F7FA"/>
<ellipse cx="130.507" cy="146.468" rx="4.32963" ry="4.94815" fill="#F4F7FA"/>
<ellipse cx="130.507" cy="162.55" rx="4.32963" ry="4.94815" fill="#F4F7FA"/>
<ellipse cx="130.507" cy="178.628" rx="4.32963" ry="4.94815" fill="#F4F7FA"/>
<circle cx="130.507" cy="194.091" r="4.32963" fill="#F4F7FA"/>
<ellipse cx="130.507" cy="209.554" rx="4.32963" ry="4.94815" fill="#F4F7FA"/>
<circle cx="145.97" cy="5.44424" r="4.94815" fill="#F4F7FA"/>
<ellipse cx="145.97" cy="20.9078" rx="4.94815" ry="4.32963" fill="#F4F7FA"/>
<circle cx="145.97" cy="36.37" r="4.94815" fill="#F4F7FA"/>
<circle cx="145.97" cy="52.4521" r="4.94815" fill="#F4F7FA"/>
<circle cx="145.97" cy="68.5341" r="4.94815" fill="#F4F7FA"/>
<ellipse cx="145.97" cy="83.9976" rx="4.94815" ry="4.32963" fill="#F4F7FA"/>
<circle cx="145.97" cy="99.4599" r="4.94815" fill="#F4F7FA"/>
<circle cx="145.97" cy="115.542" r="4.94815" fill="#F4F7FA"/>
<ellipse cx="145.97" cy="131.005" rx="4.94815" ry="4.32963" fill="#F4F7FA"/>
<circle cx="145.97" cy="146.468" r="4.94815" fill="#F4F7FA"/>
<circle cx="145.97" cy="162.55" r="4.94815" fill="#F4F7FA"/>
<circle cx="145.97" cy="178.628" r="4.94815" fill="#F4F7FA"/>
<ellipse cx="145.97" cy="194.091" rx="4.94815" ry="4.32963" fill="#F4F7FA"/>
<circle cx="145.97" cy="209.554" r="4.94815" fill="#F4F7FA"/>
<circle cx="162.052" cy="5.44424" r="4.94815" fill="#F4F7FA"/>
<ellipse cx="162.052" cy="20.9078" rx="4.94815" ry="4.32963" fill="#F4F7FA"/>
<circle cx="162.052" cy="36.37" r="4.94815" fill="#F4F7FA"/>
<circle cx="162.052" cy="52.4521" r="4.94815" fill="#F4F7FA"/>
<circle cx="162.052" cy="68.5341" r="4.94815" fill="#F4F7FA"/>
<ellipse cx="162.052" cy="83.9976" rx="4.94815" ry="4.32963" fill="#F4F7FA"/>
<circle cx="162.052" cy="99.4599" r="4.94815" fill="#F4F7FA"/>
<circle cx="162.052" cy="115.542" r="4.94815" fill="#F4F7FA"/>
<ellipse cx="162.052" cy="131.005" rx="4.94815" ry="4.32963" fill="#F4F7FA"/>
<circle cx="162.052" cy="146.468" r="4.94815" fill="#F4F7FA"/>
<circle cx="162.052" cy="162.55" r="4.94815" fill="#F4F7FA"/>
<circle cx="162.052" cy="178.628" r="4.94815" fill="#F4F7FA"/>
<ellipse cx="162.052" cy="194.091" rx="4.94815" ry="4.32963" fill="#F4F7FA"/>
<circle cx="162.052" cy="209.554" r="4.94815" fill="#F4F7FA"/>
</svg>
