<svg width="51" height="51" viewBox="0 0 51 51" fill="none" xmlns="http://www.w3.org/2000/svg">
<g clip-path="url(#clip0_133_16451)">
<path d="M32.1765 11.6009C30.5895 11.6006 29.0657 12.2234 27.9332 13.3353C26.8007 14.4471 26.1499 15.9591 26.1209 17.5459L26.0624 20.8348C26.059 21.0113 26.0183 21.1852 25.9429 21.3449C25.8676 21.5047 25.7593 21.6467 25.6252 21.7616C25.4911 21.8766 25.3343 21.9619 25.1649 22.012C24.9955 22.062 24.8175 22.0757 24.6425 22.0522L21.3828 21.6095C17.0937 21.0248 12.9842 19.0494 9.04178 15.7647C7.79306 22.6765 10.232 27.4647 16.106 31.1586L19.7541 33.4514C19.9274 33.5604 20.0714 33.7101 20.1735 33.8876C20.2755 34.065 20.3326 34.2648 20.3396 34.4694C20.3466 34.674 20.3033 34.8772 20.2136 35.0612C20.124 35.2452 19.9905 35.4045 19.8251 35.525L16.5007 37.9535C18.4782 38.0767 20.3554 37.989 21.9132 37.68C31.7652 35.7129 38.3157 28.2999 38.3157 16.0717C38.3157 15.0735 36.2025 11.6009 32.1765 11.6009ZM21.9445 17.4686C21.981 15.4557 22.6104 13.4983 23.7541 11.8415C24.8977 10.1846 26.5047 8.90198 28.3738 8.1541C30.243 7.40622 32.2912 7.22635 34.2621 7.63703C36.233 8.0477 38.0389 9.03066 39.4538 10.4628C40.9385 10.4524 42.2018 10.8283 45.0271 9.11597C44.3276 12.5406 43.983 14.0273 42.4921 16.0717C42.4921 32.0294 32.684 39.789 22.7318 41.7749C15.9077 43.1364 5.9847 40.8999 3.14062 37.9306C4.58981 37.8178 10.4784 37.1851 13.8821 34.6939C11.0026 32.7958 -0.45937 26.051 7.07264 7.91737C10.6079 12.0457 14.1933 14.8563 17.8267 16.3473C20.2448 17.3392 20.8378 17.3183 21.9466 17.4707L21.9445 17.4686Z" fill="#FF4400"/>
</g>
<defs>
<clipPath id="clip0_133_16451">
<rect width="50.116" height="50.116" fill="white" transform="translate(0.228516 0.0117188)"/>
</clipPath>
</defs>
</svg>
